<?xml version="1.0" standalone="no"?>
<!DOCTYPE svg PUBLIC "-//W3C//DTD SVG 20010904//EN"
 "http://www.w3.org/TR/2001/REC-SVG-20010904/DTD/svg10.dtd">
<svg version="1.0" xmlns="http://www.w3.org/2000/svg"
 width="512.000000pt" height="512.000000pt" viewBox="0 0 512.000000 512.000000"
 preserveAspectRatio="xMidYMid meet">
<metadata>
Created by potrace 1.11, written by Peter Selinger 2001-2013
</metadata>
<g transform="translate(0.000000,512.000000) scale(0.100000,-0.100000)"
fill="#000000" stroke="none">
<path d="M3635 4185 c-242 -39 -439 -127 -626 -282 -232 -191 -393 -459 -460
-767 -53 -241 -42 -542 26 -737 8 -23 15 -49 15 -58 0 -9 -24 -41 -53 -72 -56
-60 -222 -241 -247 -269 -19 -21 -189 -208 -210 -230 -8 -8 -80 -87 -159 -175
-80 -88 -148 -162 -151 -165 -4 -3 -53 -57 -110 -120 -57 -63 -131 -145 -164
-181 -86 -92 -137 -149 -164 -181 l-24 -28 724 0 723 1 155 150 c85 83 221
216 301 295 l146 145 79 -25 c150 -48 237 -61 399 -60 404 4 801 220 1026 559
117 176 191 344 223 510 4 17 9 41 11 55 24 124 31 377 12 465 -2 11 -10 50
-17 87 -12 65 -22 77 -63 78 -8 0 -34 -26 -252 -256 -185 -194 -307 -323 -426
-447 l-85 -88 -89 15 c-50 9 -108 18 -130 21 -22 4 -47 8 -55 10 -8 3 -33 7
-55 10 -38 6 -59 9 -115 20 -14 3 -82 15 -152 27 -138 23 -132 19 -143 93 -6
42 -20 136 -36 245 -5 36 -11 76 -14 90 -2 14 -13 88 -25 165 -11 77 -23 155
-26 173 -3 19 0 37 8 46 18 19 329 354 363 392 49 54 244 263 297 319 69 71
84 109 55 134 -47 38 -362 61 -512 36z"/>
<path d="M1310 3220 c0 -272 3 -350 13 -351 54 -7 647 -2 647 5 0 5 6 4 13 -1
14 -12 47 -13 47 -2 0 4 14 4 31 -1 25 -7 30 -6 25 5 -3 8 -1 15 4 15 6 0 10
-4 10 -9 0 -5 7 -12 16 -15 13 -5 15 -1 11 21 -5 25 -4 26 9 9 7 -10 12 -22
10 -25 -7 -11 85 -4 96 7 9 9 9 12 1 12 -6 0 -13 -3 -16 -7 -2 -5 -2 -2 -1 5
4 16 -6 15 -26 -3 -16 -14 -17 -14 -14 10 1 17 -2 25 -9 22 -7 -2 -11 -13 -9
-23 2 -16 -1 -15 -17 6 -11 14 -17 27 -15 30 3 2 9 -2 13 -9 5 -8 11 -9 15 -3
3 5 -1 15 -9 22 -18 15 -44 -2 -46 -29 0 -11 -2 -12 -6 -3 -3 7 3 22 13 34 19
20 19 21 -6 14 -23 -6 -23 -6 -5 5 11 7 24 17 28 23 5 7 6 4 3 -7 -4 -12 -2
-17 6 -14 7 2 12 11 10 19 -1 9 4 18 13 22 8 3 15 11 15 17 0 9 -3 9 -14 0
-10 -9 -15 -8 -20 4 -3 8 -3 22 0 30 5 12 10 13 20 4 11 -9 14 -9 14 0 0 6 -7
14 -16 18 -8 3 -13 11 -10 18 2 7 -9 23 -26 35 -30 22 -32 22 -45 5 -7 -11
-13 -16 -13 -12 0 17 44 66 53 60 6 -4 8 0 4 10 -3 10 -2 17 4 17 6 0 9 -8 7
-17 -2 -10 -10 -17 -16 -16 -17 4 -15 -22 3 -37 12 -10 18 -10 30 0 8 7 12 17
9 22 -4 6 -10 5 -15 -3 -4 -7 -10 -11 -13 -9 -2 3 4 16 15 30 16 21 19 22 17
6 -2 -10 2 -21 8 -23 6 -2 10 10 10 27 0 23 -3 29 -15 25 -9 -2 -23 0 -31 5
-8 5 -10 10 -5 11 6 0 1 5 -10 10 l-20 9 20 -2 c29 -3 66 12 60 23 -4 5 -14 5
-26 -1 -24 -13 -40 -5 -32 17 4 11 3 14 -5 9 -7 -4 -15 0 -18 9 -4 8 -15 20
-25 25 -15 8 -17 6 -16 -10 1 -13 6 -19 15 -15 7 2 10 0 7 -5 -3 -6 -1 -10 6
-10 7 0 10 -3 7 -6 -13 -13 -45 16 -43 38 3 31 2 30 26 18 16 -9 24 -8 39 5
17 16 17 18 2 34 -9 10 -21 16 -25 13 -5 -2 -3 5 5 17 7 11 18 23 25 25 17 7
16 1 -2 -17 -12 -13 -11 -18 11 -42 14 -15 28 -24 32 -20 4 4 -3 14 -14 24
-19 15 -20 19 -7 36 12 17 12 21 -4 33 -17 13 -17 13 2 10 14 -2 21 3 23 20 2
12 -2 22 -8 22 -7 0 -10 -6 -7 -13 3 -8 -4 -13 -22 -14 -14 0 -18 1 -8 4 9 2
15 9 12 14 -4 5 -15 4 -28 -3 -14 -7 -9 2 13 23 19 18 38 32 43 31 4 -1 7 3 7
9 0 5 10 3 22 -5 27 -19 39 -20 35 -4 -1 7 9 13 25 13 15 1 24 -3 21 -9 -3 -5
-1 -6 5 -2 28 17 6 23 -83 23 -52 0 -92 -3 -90 -8 4 -6 -16 -19 -31 -18 -3 0
-13 -10 -23 -22 -14 -17 -18 -19 -18 -6 0 9 4 14 8 12 4 -3 10 2 13 10 3 8 11
14 17 13 6 -2 13 2 16 8 3 9 -98 12 -387 13 l-390 2 0 -351z m616 315 c1 -8
-1 -17 -5 -19 -4 -3 -7 6 -7 19 0 25 8 25 12 0z m98 6 c-5 -5 -18 -5 -29 0
-18 9 -18 9 3 5 12 -2 22 1 22 7 0 6 3 7 7 4 4 -4 2 -11 -3 -16z m104 -3 c-9
-13 -18 -21 -21 -18 -4 3 -13 -4 -21 -15 -9 -11 -16 -15 -16 -10 0 6 -7 -1
-14 -14 -11 -20 -14 -21 -19 -7 -4 10 -3 15 2 12 5 -3 12 1 15 10 3 8 10 13
15 10 5 -3 12 1 15 10 4 9 9 14 13 10 3 -3 12 3 20 14 19 28 29 25 11 -2z
m-313 -18 c-3 -5 -12 -10 -18 -10 -7 0 -6 4 3 10 19 12 23 12 15 0z m32 -5 c0
-8 -4 -12 -9 -9 -5 3 -6 10 -3 15 9 13 12 11 12 -6z m168 -3 c-3 -3 -11 0 -18
7 -9 10 -8 11 6 5 10 -3 15 -9 12 -12z m-51 0 c2 -4 -4 -8 -14 -8 -10 0 -16 4
-14 8 3 4 9 8 14 8 5 0 11 -4 14 -8z m-70 -10 c2 -4 -4 -8 -14 -8 -10 0 -16 4
-14 8 3 4 9 8 14 8 5 0 11 -4 14 -8z m-129 -30 c-3 -3 -11 0 -18 7 -9 10 -8
11 6 5 10 -3 15 -9 12 -12z m50 8 c3 -6 -1 -7 -9 -4 -18 7 -21 14 -7 14 6 0
13 -4 16 -10z m165 4 c0 -8 -19 -13 -24 -6 -3 5 1 9 9 9 8 0 15 -2 15 -3z m24
-26 c-4 -14 -2 -18 5 -14 6 4 11 5 11 2 0 -16 -21 -13 -30 5 -10 17 -9 20 1
14 9 -6 11 -3 6 9 -4 10 -3 15 4 11 5 -4 7 -16 3 -27z m-78 -3 c1 -8 -1 -17
-5 -19 -4 -3 -7 6 -7 19 0 25 8 25 12 0z m190 -8 c4 -6 4 -9 0 -5 -10 8 -36
-14 -29 -24 2 -4 -3 -5 -12 -2 -22 9 -8 -24 16 -37 20 -10 26 -29 8 -29 -5 0
-7 5 -3 11 4 8 -1 9 -17 5 -13 -3 -18 -3 -12 0 10 4 10 10 -2 27 -14 20 -13
23 13 44 21 18 23 22 10 23 -10 0 -18 5 -18 10 0 13 36 -4 46 -23z m-46 -2 c0
-7 -30 -13 -34 -7 -3 4 4 9 15 9 10 1 19 0 19 -2z m-106 -13 c2 -4 -4 -8 -14
-8 -10 0 -16 4 -14 8 3 4 9 8 14 8 5 0 11 -4 14 -8z m-178 -28 c1 -9 0 -13 -4
-10 -3 4 -7 14 -8 22 -1 9 0 13 4 10 3 -4 7 -14 8 -22z m108 18 c2 -4 -4 -8
-14 -8 -10 0 -16 4 -14 8 3 4 9 8 14 8 5 0 11 -4 14 -8z m145 -15 c0 -9 -2 -8
-6 1 -2 6 -10 9 -15 6 -7 -4 -8 -2 -4 5 9 13 26 5 25 -12z m-49 -2 c0 -7 -30
-13 -34 -7 -3 4 4 9 15 9 10 1 19 0 19 -2z m-64 -23 c-3 -3 -1 -10 4 -17 7 -8
6 -12 -3 -12 -7 0 -13 11 -13 23 0 12 4 20 9 17 4 -3 6 -8 3 -11z m76 -11 c15
-18 15 -20 0 -26 -9 -3 -13 -3 -10 1 4 4 3 15 -3 25 -13 24 -8 24 13 0z m44
-7 c-7 -38 -14 -40 -12 -5 0 17 4 31 9 31 4 0 5 -12 3 -26z m-405 -11 c13 -16
12 -17 -3 -4 -10 7 -18 15 -18 17 0 8 8 3 21 -13z m174 7 c-3 -5 -12 -10 -18
-10 -7 0 -6 4 3 10 19 12 23 12 15 0z m32 -5 c0 -8 -4 -12 -9 -9 -5 3 -6 10
-3 15 9 13 12 11 12 -6z m47 -13 c2 -4 -4 -8 -14 -8 -10 0 -16 4 -14 8 3 4 9
8 14 8 5 0 11 -4 14 -8z m84 -15 c6 3 12 0 12 -5 0 -6 -8 -9 -17 -7 -10 1 -23
-1 -28 -6 -7 -5 -11 -1 -11 11 0 13 5 16 16 11 8 -5 21 -6 28 -4z m-163 -7 c3
-6 -1 -7 -9 -4 -18 7 -21 14 -7 14 6 0 13 -4 16 -10z m193 -15 c-6 -14 -13
-23 -15 -21 -5 5 15 46 22 46 3 0 -1 -11 -7 -25z m-79 -18 c8 -10 7 -14 -2
-14 -8 0 -14 6 -14 14 0 7 1 13 2 13 2 0 8 -6 14 -13z m101 -7 c0 -5 -4 -10
-10 -10 -5 0 -10 5 -10 10 0 6 5 10 10 10 6 0 10 -4 10 -10z m-244 -36 c1 -9
0 -13 -4 -10 -3 4 -7 14 -8 22 -1 9 0 13 4 10 3 -4 7 -14 8 -22z m108 18 c2
-4 -4 -8 -14 -8 -10 0 -16 4 -14 8 3 4 9 8 14 8 5 0 11 -4 14 -8z m181 0 c-5
-4 -11 -16 -13 -27 -3 -20 -2 -20 13 -1 8 11 15 23 15 28 0 4 5 8 11 8 6 0 1
-14 -11 -30 -29 -41 -47 -26 -31 28 1 1 7 2 14 2 7 0 8 -3 2 -8z m-97 -15 c6
3 12 0 12 -5 0 -6 -8 -9 -17 -7 -10 1 -23 -1 -28 -6 -7 -5 -11 -1 -11 11 0 13
5 16 16 11 8 -5 21 -6 28 -4z m86 -69 c-10 -15 -49 -1 -51 18 -2 14 -1 15 5 4
4 -8 16 -17 27 -19 19 -3 19 -2 2 16 -9 11 -17 23 -17 27 0 5 9 -2 19 -15 11
-13 17 -27 15 -31z m48 43 c-8 -4 -13 -12 -12 -17 1 -5 -3 -10 -9 -12 -6 -2
-11 0 -11 5 0 12 22 33 35 33 5 0 4 -4 -3 -9z m-185 -30 c0 -10 -7 -18 -14
-18 -9 0 -10 4 -2 13 6 7 7 19 3 25 -4 7 -3 9 4 5 6 -3 10 -15 9 -25z m77 -17
c3 -8 2 -12 -4 -9 -6 3 -10 10 -10 16 0 14 7 11 14 -7z m76 -9 c-7 -8 -17 -15
-23 -15 -6 0 -2 7 9 15 25 19 30 19 14 0z m-235 -13 c-3 -3 -11 0 -18 7 -9 10
-8 11 6 5 10 -3 15 -9 12 -12z m138 4 c4 -10 0 -12 -15 -8 -15 4 -17 7 -6 13
17 11 15 11 21 -5z m49 -3 c-6 -2 -9 -10 -6 -15 4 -7 2 -8 -5 -4 -13 9 -5 26
12 25 9 0 8 -2 -1 -6z m-144 -22 c-7 -9 -13 -18 -15 -20 -1 -2 -1 5 0 16 0 11
7 20 14 20 10 0 10 -4 1 -16z m38 -7 c1 -9 0 -13 -3 -10 -4 3 -13 0 -22 -6
-12 -10 -12 -7 2 8 9 11 15 24 12 27 -3 4 -2 5 2 2 4 -3 8 -13 9 -21z m114
-21 c-11 -17 -11 -17 -6 0 3 10 6 24 7 30 0 9 2 9 5 0 3 -7 0 -20 -6 -30z
m-190 17 c0 -5 -2 -10 -4 -10 -3 0 -8 5 -11 10 -3 6 -1 10 4 10 6 0 11 -4 11
-10z m165 0 c3 -5 2 -10 -4 -10 -5 0 -13 5 -16 10 -3 6 -2 10 4 10 5 0 13 -4
16 -10z m108 -4 c17 -13 24 -32 8 -22 -5 4 -11 3 -14 -1 -2 -5 -2 -2 -1 4 2 7
-5 17 -14 22 -9 6 -12 10 -7 10 6 0 18 -6 28 -13z m-33 -16 c-8 -5 -18 -6 -24
-3 -5 4 -7 -1 -3 -11 4 -10 3 -15 -3 -11 -6 3 -10 1 -10 -6 0 -7 -3 -10 -6 -7
-11 12 15 44 38 45 17 2 19 0 8 -7z m-143 -22 c-3 -8 -6 -5 -6 6 -1 11 2 17 5
13 3 -3 4 -12 1 -19z m153 2 c0 -5 -5 -10 -11 -10 -5 0 -7 5 -4 10 3 6 8 10
11 10 2 0 4 -4 4 -10z m-90 -9 c0 -5 -7 -11 -14 -14 -10 -4 -13 -1 -9 9 6 15
23 19 23 5z m117 -15 c-19 -15 -23 -37 -6 -33 6 1 14 -5 16 -13 4 -13 3 -13
-6 0 -6 8 -11 11 -11 6 0 -6 -5 -5 -11 1 -13 13 -2 56 12 48 5 -4 9 -1 9 6 0
7 3 9 7 5 5 -4 0 -13 -10 -20z m-337 4 c0 -5 -2 -10 -4 -10 -3 0 -8 5 -11 10
-3 6 -1 10 4 10 6 0 11 -4 11 -10z m50 4 c0 -8 -19 -13 -24 -6 -3 5 1 9 9 9 8
0 15 -2 15 -3z m94 -2 c2 -4 -4 -8 -14 -8 -10 0 -16 4 -14 8 3 4 9 8 14 8 5 0
11 -4 14 -8z m155 -6 c-2 -2 -15 -9 -29 -15 -24 -11 -24 -11 -6 3 16 13 49 24
35 12z m-129 -16 c-8 -5 -19 -10 -25 -10 -5 0 -3 5 5 10 8 5 20 10 25 10 6 0
3 -5 -5 -10z m70 0 c0 -5 -4 -10 -10 -10 -5 0 -10 5 -10 10 0 6 5 10 10 10 6
0 10 -4 10 -10z m50 -18 c-8 -4 -16 -15 -18 -24 -3 -17 23 -18 51 -2 8 6 8 3
-2 -9 -17 -22 -56 -16 -57 9 -1 27 5 34 24 33 14 0 15 -2 2 -7z m-180 -17 c-7
-8 -17 -15 -23 -15 -6 0 -2 7 9 15 25 19 30 19 14 0z m80 -5 c-8 -5 -19 -10
-25 -10 -5 0 -3 5 5 10 8 5 20 10 25 10 6 0 3 -5 -5 -10z m-190 -14 c0 -3 -4
-8 -10 -11 -5 -3 -10 -1 -10 4 0 6 5 11 10 11 6 0 10 -2 10 -4z m140 0 c0 -2
-7 -7 -16 -10 -8 -3 -12 -2 -9 4 6 10 25 14 25 6z m55 -6 c-3 -5 -1 -10 6 -10
7 0 10 -3 6 -6 -9 -9 -28 6 -22 17 4 5 8 9 11 9 3 0 2 -4 -1 -10z m65 -15 c14
-19 14 -19 -2 -6 -10 7 -18 18 -18 24 0 6 1 8 3 6 1 -2 9 -13 17 -24z m-100
11 c0 -2 -8 -10 -17 -17 -16 -13 -17 -12 -4 4 13 16 21 21 21 13z m135 -51 c2
-14 0 -23 -5 -20 -4 2 -7 16 -7 30 0 32 9 25 12 -10z m-25 9 c0 -2 -7 -4 -15
-4 -8 0 -15 4 -15 10 0 5 7 7 15 4 8 -4 15 -8 15 -10z m-132 -8 c-7 -8 -15
-12 -17 -11 -5 6 10 25 20 25 5 0 4 -6 -3 -14z m89 -8 c-3 -8 -6 -5 -6 6 -1
11 2 17 5 13 3 -3 4 -12 1 -19z m-282 2 c-3 -5 -12 -10 -18 -10 -7 0 -6 4 3
10 19 12 23 12 15 0z m248 -5 c4 -8 1 -17 -5 -21 -7 -4 -8 -3 -4 4 4 8 0 12
-11 12 -15 0 -16 2 -3 10 19 12 17 13 23 -5z m-193 -15 c0 -5 -5 -10 -11 -10
-5 0 -7 5 -4 10 3 6 8 10 11 10 2 0 4 -4 4 -10z m275 1 c3 -5 0 -13 -6 -17 -8
-5 -9 -3 -4 6 6 10 4 12 -8 7 -10 -3 -17 -2 -17 3 0 13 27 13 35 1z m-52 -22
c-8 -8 -13 -7 -18 2 -5 8 -4 10 3 5 7 -4 12 -2 12 5 0 7 3 9 7 6 4 -4 2 -12
-4 -18z m-103 1 c0 -5 -2 -10 -4 -10 -3 0 -8 5 -11 10 -3 6 -1 10 4 10 6 0 11
-4 11 -10z"/>
<path d="M2305 3560 c7 -12 -32 -28 -46 -19 -8 5 -18 9 -24 8 -5 0 0 -5 12
-12 12 -7 22 -16 22 -22 0 -5 5 -11 13 -13 10 -3 10 -2 -1 6 -9 7 -10 12 -2
16 6 4 11 2 11 -3 0 -8 7 -7 20 1 14 9 16 14 7 20 -9 6 -9 8 0 8 13 0 26 -17
29 -38 1 -6 -3 -9 -8 -6 -7 4 -8 2 -4 -4 5 -8 1 -10 -11 -6 -15 6 -15 4 2 -10
l20 -16 -20 6 c-11 3 -16 2 -10 -3 6 -4 11 -16 13 -27 3 -14 -1 -17 -15 -12
-12 4 -10 0 7 -14 15 -12 18 -18 8 -14 -10 3 -18 1 -18 -5 0 -6 5 -10 12 -8
15 3 18 -23 4 -42 -9 -12 -8 -13 4 -7 8 4 6 0 -5 -10 l-20 -17 20 7 c20 6 20
6 1 -9 -14 -11 -16 -15 -5 -15 12 0 12 -2 -1 -10 -13 -9 -13 -10 0 -10 12 0
13 -2 1 -9 -11 -7 -11 -9 0 -14 11 -4 11 -6 0 -6 -11 -1 -10 -5 5 -16 18 -14
18 -15 0 -9 -15 6 -17 3 -12 -17 3 -13 3 -18 0 -11 -3 6 -10 10 -15 6 -5 -3
-9 0 -9 5 0 6 -5 11 -11 11 -8 0 -7 -6 2 -17 12 -14 12 -16 0 -8 -9 5 -12 4
-7 -3 4 -6 14 -8 23 -5 11 4 14 3 9 -5 -4 -7 -14 -12 -22 -12 -8 0 -12 -5 -9
-11 4 -6 10 -8 13 -5 6 7 42 -23 42 -36 0 -4 -5 -8 -11 -8 -5 0 -8 4 -4 9 3 5
0 13 -6 17 -8 5 -9 3 -4 -6 5 -8 4 -11 -2 -7 -6 4 -13 0 -16 -8 -4 -9 -1 -12
9 -8 17 6 18 -1 3 -29 -6 -12 -7 -18 -1 -14 15 9 24 -25 11 -41 -10 -11 -14
-11 -21 -1 -7 10 -9 10 -5 -2 2 -8 9 -15 14 -15 6 0 15 -4 20 -9 5 -6 2 -6 -7
-1 -13 8 -13 7 0 -10 12 -15 12 -17 1 -10 -10 5 -12 4 -7 -4 4 -6 12 -9 17 -6
5 4 9 1 9 -4 0 -6 -6 -11 -12 -11 -9 0 -8 -4 2 -11 12 -8 11 -9 -5 -5 -24 7
-53 -8 -36 -18 6 -4 11 -2 11 3 0 6 4 11 9 11 5 0 8 -8 6 -17 -1 -10 -8 -17
-15 -15 -6 1 -9 -2 -6 -7 4 -5 2 -12 -3 -16 -6 -3 -8 2 -7 12 2 10 -2 24 -10
31 -9 9 -14 9 -14 2 0 -7 -6 -10 -12 -7 -7 2 -12 10 -10 17 1 7 -4 9 -16 6
-12 -4 -24 0 -33 11 -11 15 -11 16 1 6 22 -20 35 -15 16 6 -19 21 -13 46 10
37 17 -6 17 -1 3 25 -8 16 -7 26 6 46 16 24 16 25 -3 19 -28 -9 -38 11 -16 35
19 21 6 26 -16 7 -12 -11 -12 -10 -1 5 8 10 21 15 31 12 11 -3 17 0 17 10 0
20 -5 19 -46 -6 -25 -15 -31 -23 -21 -29 7 -4 10 -13 6 -19 -4 -5 2 -16 13
-23 15 -9 17 -15 9 -25 -7 -9 -7 -17 0 -26 8 -10 6 -16 -9 -25 -11 -7 -17 -18
-13 -23 4 -6 1 -15 -6 -19 -10 -6 -4 -14 19 -28 18 -11 29 -22 24 -24 -4 -3
-2 -3 5 -1 21 5 54 -17 48 -32 -7 -20 33 -10 50 12 13 17 15 17 28 0 13 -17
14 -16 12 15 -2 18 2 39 8 47 8 11 8 13 -1 7 -7 -4 -13 -2 -13 3 0 6 4 11 9
11 5 0 8 18 6 40 -2 22 1 40 6 40 6 0 0 10 -13 23 -13 12 -17 16 -8 10 22 -17
33 -16 27 1 -3 8 -3 17 1 21 4 4 8 19 8 33 1 15 3 27 4 27 1 0 3 10 6 22 2 12
5 28 6 35 2 7 8 17 13 21 6 4 2 7 -9 5 -10 -2 -21 2 -23 9 -3 8 3 11 18 8 21
-4 21 -3 4 15 -17 19 -13 41 8 39 9 0 9 -2 0 -6 -18 -7 -16 -20 3 -27 9 -3 12
-2 9 5 -4 6 1 19 11 30 9 10 14 22 11 26 -4 3 -7 1 -7 -6 0 -7 -5 -9 -10 -6
-8 5 -7 12 2 23 11 13 11 14 -1 8 -9 -6 -12 -4 -9 5 3 8 10 15 16 15 7 1 17 2
22 3 6 0 10 7 8 14 -1 6 4 23 12 37 20 36 23 63 7 57 -10 -4 -14 4 -14 24 0
23 3 26 14 18 7 -6 10 -16 7 -21 -4 -6 3 -5 14 1 12 6 24 17 28 24 5 7 0 6
-10 -3 -16 -13 -20 -12 -37 9 -16 19 -22 21 -34 11 -8 -7 -15 -8 -15 -3 0 5
-29 9 -64 8 -35 0 -63 -2 -61 -5z m85 -11 c0 -5 5 -9 11 -9 5 0 7 5 3 11 -5 8
-1 8 13 0 12 -6 24 -6 29 -1 5 5 9 -9 10 -36 0 -33 -2 -41 -8 -29 -8 13 -13
14 -24 4 -17 -14 -19 2 -2 19 9 9 9 15 -1 25 -10 10 -11 9 -6 -5 6 -14 -18
-38 -38 -38 -7 0 -3 23 7 39 7 10 6 12 -4 6 -9 -6 -11 -4 -5 5 5 8 4 11 -2 7
-8 -5 -9 -23 -4 -71 1 -5 7 -4 14 2 10 8 13 6 14 -11 1 -12 -1 -17 -5 -12 -4
6 -16 11 -27 13 -17 2 -17 1 4 -11 l24 -14 -24 -17 c-13 -9 -18 -16 -12 -16
12 0 12 -47 0 -68 -5 -6 -4 -12 0 -12 5 0 14 9 21 20 7 12 17 18 23 14 6 -3 3
-11 -8 -20 -15 -11 -15 -13 -2 -8 10 3 20 1 24 -5 3 -6 0 -9 -8 -5 -8 3 -20
-2 -27 -11 -10 -12 -10 -18 1 -32 7 -10 9 -15 5 -11 -5 4 -15 3 -22 -3 -11 -9
-9 -15 9 -31 12 -11 17 -17 10 -13 -9 4 -11 -3 -8 -25 2 -16 0 -32 -5 -35 -5
-3 -7 -12 -3 -20 3 -8 0 -15 -6 -15 -6 0 -11 -5 -11 -11 0 -5 6 -7 13 -3 9 6
9 5 0 -8 -7 -8 -9 -19 -5 -24 4 -4 -1 -2 -10 5 -10 7 -15 18 -12 23 3 5 -4 20
-15 32 -20 21 -20 24 -6 36 9 7 14 19 11 27 -3 8 -2 11 3 8 5 -3 12 -1 15 4 4
5 3 12 -2 15 -7 4 -9 76 -2 84 6 5 6 88 0 97 -5 9 -5 31 0 48 1 4 4 12 5 17 1
6 4 12 5 15 7 15 5 32 -6 45 -11 13 -8 15 17 16 16 1 29 -2 29 -7z m41 -73
c-9 -11 -6 -13 19 -10 30 4 30 3 15 -20 -18 -27 -50 -44 -42 -24 2 7 10 12 16
11 6 -2 11 1 11 6 0 6 -9 9 -19 8 -11 0 -17 -5 -14 -11 4 -5 1 -6 -6 -1 -10 6
-11 3 -2 -13 15 -27 15 -27 -12 -45 -23 -15 -23 -14 -22 14 1 15 9 37 19 48
10 11 15 25 10 32 -4 7 -3 10 4 5 6 -3 13 -2 17 4 3 5 9 10 12 10 3 0 0 -6 -6
-14z m19 -70 c0 -3 -4 -8 -10 -11 -5 -3 -10 -1 -10 4 0 6 5 11 10 11 6 0 10
-2 10 -4z m-104 -380 c1 -20 -2 -36 -8 -36 -5 0 -6 -5 -2 -12 4 -7 3 -8 -5 -4
-6 4 -9 11 -6 16 3 5 1 12 -5 15 -7 4 -7 11 -2 18 11 15 12 47 0 47 -4 0 -8 5
-8 12 0 29 33 -24 36 -56z m-9 -110 c0 -8 -6 -12 -15 -9 -11 5 -11 7 0 14 7 5
13 9 14 9 0 0 1 -6 1 -14z"/>
<path d="M2390 3520 c0 -5 5 -10 10 -10 6 0 10 5 10 10 0 6 -4 10 -10 10 -5 0
-10 -4 -10 -10z"/>
<path d="M2344 3439 c0 -13 3 -15 13 -7 7 6 13 12 13 13 0 2 -6 5 -13 8 -7 3
-13 -3 -13 -14z"/>
<path d="M2360 3320 c-8 -5 -15 -20 -16 -34 -1 -21 2 -24 13 -14 9 7 11 14 4
21 -7 7 -5 15 7 23 20 15 14 18 -8 4z"/>
<path d="M2347 3239 c7 -7 15 -10 18 -7 3 3 -2 9 -12 12 -14 6 -15 5 -6 -5z"/>
<path d="M2332 3191 c-21 -29 -21 -29 -1 -46 10 -10 20 -15 20 -12 3 14 7 27
8 30 2 1 4 12 7 24 6 34 -10 35 -34 4z m24 -3 c-3 -13 -5 -25 -6 -28 -2 -3 -2
-9 -1 -14 1 -5 -5 -4 -13 3 -14 12 -14 16 2 37 21 29 23 29 18 2z"/>
<path d="M2389 3428 c-7 -23 -3 -45 8 -41 16 6 17 23 2 23 -5 0 -7 5 -4 10 3
6 4 10 1 10 -3 0 -6 -1 -7 -2z"/>
<path d="M2325 3021 c-3 -5 -2 -12 3 -15 5 -3 9 1 9 9 0 17 -3 19 -12 6z"/>
<path d="M2486 3558 c3 -4 9 -8 15 -8 5 0 9 4 9 8 0 5 -7 9 -15 9 -8 0 -12 -4
-9 -9z"/>
<path d="M2141 3518 c-11 -17 -10 -19 6 -14 35 11 53 -27 23 -51 -8 -7 -10
-13 -4 -13 5 0 15 5 22 12 8 8 15 8 28 -3 15 -12 17 -12 12 1 -3 8 -2 22 3 31
20 38 -67 74 -90 37z m59 -3 c0 6 4 4 9 -4 11 -16 4 -41 -11 -41 -7 0 -6 5 1
14 9 10 8 15 -4 20 -8 3 -15 11 -15 18 0 9 3 8 10 -2 5 -8 10 -10 10 -5z"/>
<path d="M2230 3522 c0 -5 3 -12 7 -16 11 -11 12 -36 2 -36 -6 0 -7 -5 -3 -11
4 -8 9 -7 15 2 4 7 5 17 3 21 -3 4 -1 8 4 8 5 0 12 -9 15 -21 4 -13 10 -18 18
-14 6 5 2 -5 -10 -22 -26 -34 -20 -72 8 -51 9 7 13 8 9 4 -4 -5 -2 -16 4 -25
7 -9 8 -13 4 -9 -11 10 -36 -10 -36 -28 0 -8 5 -14 11 -14 5 0 8 4 4 9 -3 5
-1 12 4 15 5 4 8 -1 7 -10 -1 -8 -9 -20 -17 -25 -12 -7 -12 -9 0 -9 11 0 9 -4
-5 -15 -14 -11 -15 -14 -3 -9 10 3 20 1 24 -5 4 -7 0 -8 -11 -4 -12 5 -15 3
-9 -6 6 -10 3 -11 -13 -2 -25 13 -43 15 -23 2 19 -12 22 -68 4 -68 -9 0 -10 4
-2 14 14 17 -2 17 -21 1 -8 -7 -7 -4 2 7 11 13 14 25 8 34 -4 8 -6 20 -3 27 3
8 -10 5 -36 -9 -39 -21 -52 -37 -31 -37 6 0 10 5 10 12 0 9 3 9 12 0 17 -17
33 -15 18 3 -7 9 -8 15 -2 15 5 0 12 -6 14 -12 8 -20 -2 -39 -15 -31 -8 4 -7
1 1 -9 7 -9 9 -18 5 -20 -4 -3 -2 -3 5 -2 17 5 42 -6 42 -18 0 -5 -5 -6 -12
-2 -6 4 -8 3 -5 -3 4 -6 -4 -18 -18 -27 -27 -18 -34 -42 -10 -32 18 6 45 -2
45 -15 0 -5 -4 -8 -9 -7 -9 3 -11 -1 -11 -27 0 -16 20 -16 33 0 5 6 7 4 4 -5
-2 -8 -10 -14 -17 -12 -6 1 -10 -3 -7 -10 2 -7 9 -12 14 -11 5 1 9 -11 9 -26
0 -16 -5 -28 -12 -28 -7 0 -11 4 -8 9 3 4 0 8 -5 8 -6 0 -10 -11 -9 -24 2 -17
6 -22 14 -16 6 6 14 7 17 3 4 -3 7 -1 7 5 0 7 3 11 8 11 20 -3 32 2 26 12 -4
8 -9 7 -15 -2 -6 -10 -9 -10 -9 -2 0 6 5 15 11 18 7 5 5 13 -6 25 -9 10 -13
24 -9 34 5 14 9 15 15 5 4 -8 11 -10 16 -6 9 9 -17 28 -29 21 -4 -3 -8 0 -8 7
0 9 -3 9 -14 0 -11 -9 -16 -9 -22 0 -4 7 -3 9 4 5 6 -3 21 14 36 39 13 25 21
43 17 40 -14 -8 -26 17 -26 50 0 23 5 30 20 30 17 0 20 7 20 55 1 30 5 62 10
70 14 22 15 40 2 37 -7 -1 -12 5 -12 13 0 8 -4 21 -8 28 -8 11 -2 16 16 13 4
-1 4 7 -1 16 -12 26 -9 40 13 58 11 9 13 13 5 9 -8 -4 -23 -14 -33 -23 -18
-15 -20 -14 -37 7 -19 23 -30 28 -30 14z m59 -118 c-6 -8 -15 -12 -18 -8 -3 4
0 9 7 11 6 3 9 10 6 15 -4 7 -2 8 5 4 9 -6 9 -11 0 -22z m-14 -264 c4 -6 -1
-7 -12 -3 -16 6 -17 5 -3 -13 14 -17 13 -18 -1 -7 -22 17 -33 3 -11 -14 15
-13 14 -13 -6 -3 -23 11 -23 12 -6 31 19 21 30 24 39 9z"/>
<path d="M2246 3444 c-14 -10 -23 -11 -32 -3 -14 12 -50 -6 -59 -30 -7 -19 12
-40 36 -38 23 2 19 22 -4 22 -9 0 -17 5 -16 10 0 6 8 9 17 8 9 -1 24 3 33 8
12 6 20 5 25 -3 4 -6 3 -8 -3 -5 -5 3 -10 0 -10 -8 0 -8 6 -16 12 -19 7 -2 11
5 10 17 -1 12 5 27 13 33 8 6 11 13 6 17 -5 3 -18 -1 -28 -9z"/>
<path d="M2213 3380 c0 -21 3 -27 9 -18 6 9 7 5 3 -10 -5 -15 -3 -22 6 -20 7
2 13 -6 13 -17 0 -11 -6 -19 -13 -17 -7 1 -21 -3 -30 -10 -14 -11 -14 -11 -3
3 11 14 9 17 -13 17 -30 0 -32 -9 -4 -26 15 -10 24 -10 34 -2 10 8 15 8 20 0
4 -6 12 -9 18 -7 14 4 18 37 4 37 -5 0 -7 3 -4 6 3 4 1 16 -5 28 -10 18 -9 19
4 8 13 -10 18 -9 29 5 7 10 10 15 5 11 -12 -10 -68 20 -61 32 4 6 2 10 -3 10
-5 0 -9 -14 -9 -30z"/>
<path d="M2193 3359 c4 -12 -2 -15 -26 -14 -35 3 -57 -10 -57 -31 0 -8 6 -13
13 -11 6 1 11 -6 11 -16 -1 -10 3 -16 10 -14 6 3 10 10 8 17 -3 14 16 40 30
40 5 0 6 -6 2 -12 -5 -9 -2 -9 9 1 9 7 17 9 17 3 0 -5 6 -12 13 -15 8 -3 14 1
14 9 0 7 -4 11 -8 8 -5 -2 -15 8 -24 23 -9 15 -14 21 -12 12z m-43 -39 c0 -5
-2 -10 -4 -10 -3 0 -8 5 -11 10 -3 6 -1 10 4 10 6 0 11 -4 11 -10z"/>
<path d="M2283 3093 c-15 -5 -17 -23 -4 -23 5 0 11 7 15 15 3 8 4 15 3 14 -1
0 -8 -3 -14 -6z"/>
<path d="M2150 3040 c0 -5 5 -10 10 -10 6 0 10 5 10 10 0 6 -4 10 -10 10 -5 0
-10 -4 -10 -10z"/>
<path d="M2215 3035 c19 -51 19 -58 -4 -50 -24 7 -28 -7 -7 -24 11 -9 15 -8
20 5 4 10 12 14 22 10 12 -5 10 3 -7 32 -27 45 -35 53 -24 27z"/>
<path d="M2313 2875 c0 -8 4 -15 9 -15 4 0 8 7 8 15 0 8 -4 15 -8 15 -5 0 -9
-7 -9 -15z"/>
<path d="M629 2721 c-6 -28 -2 -694 4 -698 4 -3 70 -4 145 -3 75 1 223 1 329
1 175 0 191 2 187 17 -5 16 -5 15 5 0 10 -15 33 -17 216 -15 135 1 205 5 205
12 0 6 3 6 8 -1 11 -18 61 -14 72 7 16 30 11 36 -10 10 -11 -13 -20 -18 -20
-11 0 10 -3 10 -15 0 -10 -9 -15 -9 -15 -1 0 6 5 11 11 11 5 0 7 6 3 13 -5 8
-2 8 9 -2 18 -14 22 -5 8 17 -7 11 -13 9 -30 -9 -23 -25 -30 -21 -50 25 -11
26 -10 28 3 16 9 -7 16 -21 16 -31 0 -11 5 -19 11 -19 6 0 9 6 6 13 -3 8 0 14
6 15 7 1 23 3 36 4 28 3 40 23 14 24 -10 1 -27 5 -38 9 -18 8 -18 7 -6 -8 9
-11 10 -17 2 -17 -6 0 -11 5 -11 11 0 5 -6 7 -12 3 -9 -5 -8 -2 1 9 8 10 10
21 6 25 -4 4 -10 1 -12 -5 -3 -7 -9 -13 -15 -13 -6 0 -4 7 3 17 12 15 12 16
-3 10 -29 -11 -31 12 -4 44 14 17 26 27 26 22 1 -4 8 4 16 20 8 15 19 27 25
27 6 0 7 5 3 11 -4 8 -9 8 -17 0 -23 -23 -25 -10 -2 15 14 15 22 31 19 36 -3
5 -13 -1 -22 -14 -9 -13 -32 -38 -51 -57 -32 -32 -33 -35 -15 -42 14 -6 15 -8
3 -8 -25 -1 -30 11 -14 35 11 17 12 24 2 28 -6 3 -1 3 13 0 14 -4 22 -3 19 0
-4 4 11 24 32 46 21 21 35 42 29 45 -5 3 -17 -6 -26 -20 -18 -28 -72 -61 -82
-50 -3 3 4 8 16 12 12 3 22 10 22 16 0 6 3 8 6 4 8 -8 57 50 50 61 -3 4 4 21
15 38 24 37 24 47 0 32 -11 -7 -18 -15 -16 -18 8 -14 -11 -29 -25 -20 -13 8
-12 10 3 10 10 0 16 4 12 9 -3 6 4 15 15 21 11 6 20 15 20 21 0 5 -11 2 -25
-7 -14 -9 -28 -14 -32 -10 -3 3 -1 6 6 6 7 0 9 5 5 12 -4 6 -3 8 3 5 12 -8 63
29 63 46 0 8 -4 7 -12 -1 -17 -17 -21 -16 -54 13 -37 31 -55 33 -26 2 12 -13
22 -27 22 -32 0 -4 -8 1 -17 12 -20 22 -45 20 -37 -2 3 -8 13 -11 22 -8 15 4
15 3 2 -6 -11 -8 -18 -6 -28 7 -11 14 -10 19 5 29 9 7 13 13 8 13 -5 0 -4 5 3
12 9 9 15 9 24 0 17 -17 33 -15 18 3 -7 9 -10 18 -6 22 3 3 6 1 6 -5 0 -6 12
-18 28 -27 26 -15 26 -16 2 -9 -24 6 -24 5 -7 -12 16 -17 18 -17 33 -2 15 14
13 17 -14 34 -28 16 -29 19 -17 37 7 11 11 25 8 32 -2 8 4 18 15 24 18 10 23
43 9 57 -6 7 -11 -19 -8 -39 1 -5 -3 -6 -8 -3 -5 3 -11 -1 -15 -9 -3 -8 -13
-15 -23 -14 -16 0 -16 1 2 9 11 5 16 9 11 9 -6 1 -1 7 10 15 16 13 17 17 5 28
-8 7 -11 8 -8 2 7 -12 -21 -29 -31 -19 -3 3 0 5 7 5 7 0 10 4 7 9 -7 11 -32 9
-43 -4 -4 -4 -2 -5 4 -1 9 5 11 2 6 -10 -5 -15 -7 -15 -17 2 -14 24 -36 29
-36 8 0 -8 4 -13 9 -9 15 9 24 -15 11 -30 -13 -16 -31 -11 -29 8 1 7 1 21 0
32 -1 17 -3 18 -11 5 -5 -8 -10 -10 -10 -5 0 6 -9 11 -20 11 -11 0 -20 -6 -20
-14 0 -7 5 -10 12 -6 7 5 8 3 3 -6 -6 -10 -11 -9 -22 6 -15 20 -103 29 -103
10 0 -7 -3 -8 -8 -1 -10 14 -113 14 -104 0 3 -5 -2 -4 -11 4 -14 11 -17 11
-17 0 0 -11 -2 -11 -9 0 -8 12 -12 12 -24 2 -10 -8 -17 -9 -22 -1 -3 5 -13 10
-21 10 -10 0 -12 -5 -8 -12 5 -9 2 -9 -9 1 -14 11 -17 11 -17 0 0 -10 -3 -10
-8 -3 -7 12 -65 16 -57 4 2 -3 -2 -7 -10 -7 -8 0 -12 4 -10 7 3 4 -6 8 -20 8
-14 0 -22 -5 -18 -11 4 -6 1 -7 -8 -1 -15 10 -448 14 -450 5z m858 -16 c0 -8
-4 -12 -9 -9 -5 3 -6 10 -3 15 9 13 12 11 12 -6z m40 -32 c1 -22 -1 -24 -8
-10 -6 9 -7 22 -4 27 9 14 10 13 12 -17z m77 12 c-10 -8 -23 -15 -28 -15 -6 0
-1 7 10 15 10 8 23 15 28 15 6 0 1 -7 -10 -15z m99 -15 c-19 -22 -33 -26 -33
-9 0 5 4 8 9 5 5 -3 11 1 15 9 3 8 10 15 16 15 5 0 2 -9 -7 -20z m-535 -15
c-3 -3 -9 2 -12 12 -6 14 -5 15 5 6 7 -7 10 -15 7 -18z m72 9 c0 -8 -19 -13
-24 -6 -3 5 1 9 9 9 8 0 15 -2 15 -3z m30 -4 c0 -5 -5 -10 -11 -10 -5 0 -7 5
-4 10 3 6 8 10 11 10 2 0 4 -4 4 -10z m150 7 c0 -2 -9 -12 -19 -21 -14 -13
-21 -14 -27 -5 -4 7 -3 10 3 6 6 -4 16 0 23 8 12 14 20 19 20 12z m73 -17 c4
0 5 5 1 12 -4 7 -3 8 5 4 6 -4 9 -11 6 -16 -3 -4 0 -10 7 -12 7 -3 4 -7 -7
-12 -11 -4 -16 -4 -13 0 4 3 -1 14 -10 23 -10 9 -13 13 -8 9 6 -5 14 -8 19 -8z
m133 -8 c4 -24 -11 -38 -22 -21 -4 7 -3 9 4 5 7 -4 10 1 9 14 -2 25 -6 25 -24
3 -13 -16 -13 -16 -3 5 13 27 32 25 36 -6z m-186 4 c0 -2 -8 -10 -17 -17 -16
-13 -17 -12 -4 4 13 16 21 21 21 13z m220 -11 c0 -8 -2 -15 -4 -15 -2 0 -6 7
-10 15 -3 8 -1 15 4 15 6 0 10 -7 10 -15z m47 4 c-12 -7 -16 -18 -13 -32 3
-12 3 -17 0 -10 -3 7 -13 9 -22 6 -15 -4 -15 -3 -2 6 8 6 11 11 6 11 -13 0 26
29 39 29 6 0 2 -4 -8 -10z m27 -13 c-6 -15 -24 -23 -24 -11 0 8 24 34 28 30 1
-1 0 -10 -4 -19z m-464 -6 c0 -5 -2 -10 -4 -10 -3 0 -8 5 -11 10 -3 6 -1 10 4
10 6 0 11 -4 11 -10z m300 0 c0 -5 -4 -10 -10 -10 -5 0 -10 5 -10 10 0 6 5 10
10 10 6 0 10 -4 10 -10z m-180 -4 c0 -2 -8 -10 -17 -17 -16 -13 -17 -12 -4 4
13 16 21 21 21 13z m34 -22 c3 -8 2 -12 -4 -9 -6 3 -10 10 -10 16 0 14 7 11
14 -7z m69 -3 c3 -13 0 -18 -7 -15 -7 3 -13 11 -13 19 0 22 14 18 20 -4z m40
4 c-3 -9 -8 -14 -10 -11 -3 3 -2 9 2 15 9 16 15 13 8 -4z m72 4 c11 -16 1 -19
-13 -3 -7 8 -8 14 -3 14 5 0 13 -5 16 -11z m39 -4 c-5 -11 -2 -14 12 -9 15 6
16 4 7 -6 -6 -7 -16 -9 -22 -6 -14 9 -15 36 -1 36 5 0 7 -7 4 -15z m-62 -9 c7
4 8 2 4 -5 -9 -13 -26 -5 -25 12 0 9 2 8 6 -1 2 -6 10 -9 15 -6z m-352 -6 c0
-5 -2 -10 -4 -10 -3 0 -8 5 -11 10 -3 6 -1 10 4 10 6 0 11 -4 11 -10z m324
-19 c-2 -3 -19 -6 -36 -7 -18 -2 -27 1 -20 5 13 8 64 10 56 2z m41 -1 c-3 -5
-12 -10 -18 -10 -7 0 -6 4 3 10 19 12 23 12 15 0z m45 0 c8 -5 11 -10 5 -10
-5 0 -17 5 -25 10 -8 5 -10 10 -5 10 6 0 17 -5 25 -10z m-414 -25 c-1 -8 -5
-17 -8 -21 -5 -4 -4 16 1 34 3 9 9 -1 7 -13z m182 -4 c-7 -9 -13 -18 -15 -20
-1 -2 -1 5 0 16 0 11 7 20 14 20 10 0 10 -4 1 -16z m39 0 c-10 -12 -9 -14 4
-9 9 4 16 1 16 -7 0 -10 -5 -11 -17 -5 -11 6 -22 5 -31 -3 -7 -7 -6 -3 4 9 9
11 15 23 12 26 -3 2 2 5 10 5 12 0 12 -3 2 -16z m167 4 c-7 -16 -24 -21 -24
-6 0 8 7 13 27 20 1 1 0 -6 -3 -14z m-50 -11 c3 -8 2 -12 -4 -9 -6 3 -10 1
-10 -6 0 -7 -2 -10 -5 -7 -5 5 4 38 10 38 2 0 6 -7 9 -16z m76 -43 c-9 -18
-53 -51 -67 -51 -4 0 4 8 20 18 15 10 24 22 20 27 -5 4 -2 5 5 1 6 -4 12 -3
12 2 0 17 -13 22 -29 9 -14 -11 -14 -10 -2 6 11 14 17 15 28 5 12 -10 13 -7 8
18 -5 26 -5 27 5 6 6 -15 7 -30 0 -41z m-269 22 c13 -16 12 -17 -3 -4 -10 7
-18 15 -18 17 0 8 8 3 21 -13z m159 13 c0 -2 -9 -6 -20 -9 -11 -3 -18 -1 -14
4 5 9 34 13 34 5z m215 -6 c3 -5 1 -10 -4 -10 -6 0 -11 5 -11 10 0 6 2 10 4
10 3 0 8 -4 11 -10z m-458 -15 c0 -8 -4 -12 -9 -9 -5 3 -6 10 -3 15 9 13 12
11 12 -6z m298 -11 c-2 -27 -32 -55 -32 -30 0 8 7 12 15 8 10 -3 13 -1 8 7 -4
6 -5 18 -2 26 8 22 12 18 11 -11z m-255 12 c0 -2 -8 -10 -17 -17 -16 -13 -17
-12 -4 4 13 16 21 21 21 13z m380 -3 c0 -5 -6 -16 -13 -25 -12 -15 -14 -15
-25 3 -7 11 -8 19 -2 19 5 0 10 -5 10 -11 0 -5 5 -7 10 -4 6 4 8 11 5 16 -4 5
-1 9 4 9 6 0 11 -3 11 -7z m-286 -19 c3 -8 2 -12 -4 -9 -6 3 -10 10 -10 16 0
14 7 11 14 -7z m-234 -10 c0 -8 -19 -13 -24 -6 -3 5 1 9 9 9 8 0 15 -2 15 -3z
m470 -29 c-9 -11 -16 -13 -23 -6 -7 7 -6 15 3 26 9 11 16 13 23 6 7 -7 6 -15
-3 -26z m-128 2 c-7 -8 -9 -17 -5 -20 3 -4 1 -7 -5 -7 -7 0 -12 2 -12 5 0 10
24 44 29 40 2 -3 -1 -11 -7 -18z m-123 10 c-2 -2 -11 -8 -20 -15 -12 -9 -16
-9 -16 1 0 7 9 14 20 14 11 1 18 1 16 0z m294 -17 c-19 -22 -33 -26 -33 -9 0
5 4 8 9 5 5 -3 11 1 15 9 3 8 10 15 16 15 5 0 2 -9 -7 -20z m-378 -18 c-3 -3
-11 0 -18 7 -9 10 -8 11 6 5 10 -3 15 -9 12 -12z m131 -4 c0 -10 -1 -18 -2
-18 0 0 -8 8 -17 18 -15 16 -15 18 1 18 10 0 18 -8 18 -18z m170 -6 c4 -24
-11 -38 -22 -21 -4 7 -3 9 4 5 7 -4 10 1 9 14 -1 21 -17 29 -17 8 0 -6 -3 -9
-6 -5 -9 9 6 29 19 24 5 -1 12 -13 13 -25z m-499 -7 c0 -8 -4 -12 -9 -9 -5 3
-6 10 -3 15 9 13 12 11 12 -6z m88 5 c3 -6 -1 -7 -9 -4 -18 7 -21 14 -7 14 6
0 13 -4 16 -10z m208 -10 c10 -12 9 -12 -4 -2 -9 6 -18 9 -21 6 -3 -3 -9 -1
-12 4 -9 15 22 8 37 -8z m142 11 c3 -5 0 -13 -6 -17 -8 -4 -9 -3 -5 4 9 15 1
15 -27 1 -21 -10 -21 -10 -3 5 23 18 32 20 41 7z m95 -6 c0 -8 -2 -15 -4 -15
-2 0 -6 7 -10 15 -3 8 -1 15 4 15 6 0 10 -7 10 -15z m55 5 c-3 -5 -1 -10 4
-10 6 0 11 -5 11 -10 0 -6 -8 -5 -19 2 -19 12 -19 28 0 28 6 0 7 -4 4 -10z
m-341 -18 c3 -5 -1 -9 -9 -9 -8 0 -15 4 -15 9 0 4 4 8 9 8 6 0 12 -4 15 -8z
m211 -18 c-1 -14 -7 -29 -14 -33 -7 -5 -12 -12 -11 -17 1 -5 -3 -9 -9 -10 -7
-2 -8 -1 -1 3 5 2 8 9 4 14 -3 5 2 12 10 15 9 3 13 10 10 16 -5 8 1 38 9 38 1
0 2 -12 2 -26z m122 -8 c-2 -5 -9 -11 -15 -12 -7 -1 -8 0 -2 3 13 6 3 23 -13
19 -7 -1 -9 -1 -4 1 4 3 4 9 1 15 -3 5 3 4 15 -4 12 -7 20 -17 18 -22z m-459
-1 c-3 -3 -9 2 -12 12 -6 14 -5 15 5 6 7 -7 10 -15 7 -18z m174 10 c2 3 5 -2
5 -10 0 -19 0 -19 -23 7 -12 14 -13 18 -3 10 9 -6 18 -10 21 -7z m58 0 c0 -1
-6 -7 -13 -13 -10 -8 -13 -6 -13 7 0 11 6 17 13 14 7 -3 13 -6 13 -8z m-153
-12 c0 -9 -4 -10 -14 -2 -7 6 -13 12 -13 14 0 1 6 2 13 2 8 0 14 -6 14 -14z
m183 7 c0 -5 -4 -10 -10 -10 -5 0 -10 5 -10 10 0 6 5 10 10 10 6 0 10 -4 10
-10z m98 -15 c-3 -3 -9 2 -12 12 -6 14 -5 15 5 6 7 -7 10 -15 7 -18z m36 10
c-5 -11 -2 -14 12 -9 15 6 16 4 7 -6 -6 -7 -16 -9 -22 -6 -14 9 -15 36 -1 36
5 0 7 -7 4 -15z m-274 -9 c0 -2 -7 -7 -16 -10 -8 -3 -12 -2 -9 4 6 10 25 14
25 6z m25 -43 c-18 -17 -18 -17 -6 0 11 14 11 20 0 35 -12 16 -12 16 6 0 19
-18 19 -18 0 -35z m-495 21 c0 -8 -19 -13 -24 -6 -3 5 1 9 9 9 8 0 15 -2 15
-3z m350 -4 c0 -5 -4 -10 -10 -10 -5 0 -10 5 -10 10 0 6 5 10 10 10 6 0 10 -4
10 -10z m40 0 c0 -5 -4 -10 -10 -10 -5 0 -10 5 -10 10 0 6 5 10 10 10 6 0 10
-4 10 -10z m340 0 c0 -5 -4 -10 -10 -10 -5 0 -10 5 -10 10 0 6 5 10 10 10 6 0
10 -4 10 -10z m-100 -4 c0 -2 -7 -9 -15 -16 -13 -11 -14 -10 -9 4 5 14 24 23
24 12z m-165 -24 c-3 -3 -11 0 -18 7 -9 10 -8 11 6 5 10 -3 15 -9 12 -12z
m241 0 c1 -7 0 -8 -3 -2 -2 5 -9 10 -14 10 -6 0 -7 -5 -3 -12 4 -7 3 -8 -5 -4
-14 9 -4 29 12 23 6 -2 12 -9 13 -15z m-179 -7 c0 -8 -3 -13 -5 -10 -3 3 -12
-1 -21 -7 -10 -8 -9 -4 3 10 23 26 23 26 23 7z m222 -30 c0 -5 -4 -3 -9 5 -5
8 -9 22 -9 30 0 16 17 -16 18 -35z m-83 23 c3 -4 -1 -5 -10 -4 -8 1 -18 5 -22
8 -3 4 1 5 10 4 8 -1 18 -5 22 -8z m-38 -23 c-3 -3 -9 2 -12 12 -6 14 -5 15 5
6 7 -7 10 -15 7 -18z m-154 3 c-3 -4 -9 -8 -15 -8 -5 0 -9 4 -9 8 0 5 7 9 15
9 8 0 12 -4 9 -9z m131 2 c4 -6 3 -10 -2 -9 -17 4 -43 -14 -36 -25 3 -6 2 -7
-2 -3 -14 13 -14 36 0 31 7 -3 16 -1 20 5 8 14 12 14 20 1z m126 -13 c6 -10 5
-18 -1 -22 -6 -4 -10 -3 -9 2 4 22 -2 32 -16 27 -8 -4 -15 -2 -15 4 0 16 31 8
41 -11z m-209 1 c-14 -14 -44 -20 -36 -7 3 5 9 7 14 4 5 -3 11 -1 15 5 3 5 9
10 13 10 3 0 1 -5 -6 -12z m160 -30 c-6 -6 -12 -6 -17 3 -6 8 -4 10 5 4 9 -5
10 -1 6 16 -6 21 -6 22 5 6 7 -13 8 -22 1 -29z m148 38 c0 -3 -4 -8 -10 -11
-5 -3 -10 -1 -10 4 0 6 5 11 10 11 6 0 10 -2 10 -4z m-515 -16 c-3 -5 -12 -10
-18 -10 -7 0 -6 4 3 10 19 12 23 12 15 0z m485 0 c0 -5 -5 -10 -11 -10 -5 0
-7 5 -4 10 3 6 8 10 11 10 2 0 4 -4 4 -10z m-257 -13 c3 -8 -1 -14 -8 -14 -7
0 -11 6 -8 14 3 7 6 13 8 13 2 0 5 -6 8 -13z m102 -7 c-3 -5 -12 -10 -18 -10
-7 0 -6 4 3 10 19 12 23 12 15 0z m-136 -27 c2 -1 -5 -1 -16 0 -11 0 -20 7
-20 14 0 10 4 10 16 1 9 -7 18 -13 20 -15z m181 -8 c0 -2 -6 -7 -12 -11 -7 -4
-10 -4 -6 1 4 4 0 14 -10 22 -15 13 -15 13 6 3 12 -6 22 -13 22 -15z m70 15
c11 -8 8 -9 -12 -4 -19 4 -28 2 -28 -7 0 -7 -3 -10 -6 -6 -8 8 5 27 19 27 7 0
19 -5 27 -10z m-104 -39 c-4 -6 -13 -11 -19 -10 -9 0 -9 2 1 6 6 2 12 9 12 14
0 6 -5 7 -12 3 -7 -5 -8 -3 -3 5 5 9 11 9 17 3 6 -6 7 -15 4 -21z m86 -3 c-9
-9 -15 -9 -24 1 -11 10 -10 11 5 5 14 -5 16 -2 11 12 -6 16 -5 17 7 7 10 -10
10 -16 1 -25z m-219 7 c-3 -9 -8 -14 -10 -11 -3 3 -2 9 2 15 9 16 15 13 8 -4z
m-249 -3 c3 -5 -1 -9 -9 -9 -8 0 -12 4 -9 9 3 4 7 8 9 8 2 0 6 -4 9 -8z m147
-9 c13 -16 12 -17 -3 -4 -10 7 -18 15 -18 17 0 8 8 3 21 -13z m269 -3 c-12
-23 -16 -24 -26 -8 -4 6 -3 8 3 5 6 -4 13 0 17 8 3 8 8 15 11 15 3 0 1 -9 -5
-20z m-210 -4 c0 -2 -8 -10 -17 -17 -16 -13 -17 -12 -4 4 13 16 21 21 21 13z
m227 -16 c-1 -10 -3 -17 -6 -15 -2 3 -9 -2 -15 -9 -8 -10 -17 -11 -31 -5 -19
9 -19 9 1 5 15 -2 26 4 35 20 15 29 18 30 16 4z m68 10 c3 -5 2 -10 -4 -10 -5
0 -13 5 -16 10 -3 6 -2 10 4 10 5 0 13 -4 16 -10z m-222 -17 c8 3 14 -1 14 -8
0 -16 -33 -8 -49 14 -12 14 -11 15 4 2 10 -7 24 -11 31 -8z m-268 -3 c3 -5 1
-10 -4 -10 -6 0 -11 5 -11 10 0 6 2 10 4 10 3 0 8 -4 11 -10z m41 -16 c1 -9 0
-13 -4 -10 -3 4 -7 14 -8 22 -1 9 0 13 4 10 3 -4 7 -14 8 -22z m182 5 c9 -12
9 -16 -1 -16 -7 0 -14 9 -14 20 -1 11 -1 18 0 16 2 -2 8 -11 15 -20z m250 12
c11 -7 11 -9 -2 -14 -9 -4 -18 -5 -21 -4 -2 1 -10 -7 -18 -17 -11 -15 -16 -16
-22 -6 -5 8 -4 11 2 7 6 -4 14 0 17 9 3 8 10 13 15 9 5 -3 12 -1 15 4 4 5 -2
12 -11 14 -13 3 -14 5 -3 6 8 0 21 -3 28 -8z m-128 -5 c0 -2 -9 -6 -20 -9 -11
-3 -18 -1 -14 4 5 9 34 13 34 5z m-156 -14 c3 -5 -1 -9 -9 -9 -8 0 -12 4 -9 9
3 4 7 8 9 8 2 0 6 -4 9 -8z m302 -17 c-3 -8 0 -15 6 -15 6 0 8 -3 5 -6 -4 -4
-13 -2 -21 5 -11 9 -15 8 -20 -4 -3 -9 -10 -14 -15 -11 -5 4 -12 -1 -14 -9 -4
-13 -5 -13 -3 0 0 9 5 15 9 13 5 -2 13 5 18 15 6 9 14 15 20 12 5 -4 9 -1 9 4
0 6 3 11 6 11 3 0 4 -7 0 -15z m-143 -12 c-5 -12 -3 -14 7 -8 9 6 11 4 5 -4
-5 -9 -11 -9 -17 -3 -6 6 -7 15 -4 21 11 17 16 13 9 -6z m57 -8 c0 -2 -6 -7
-12 -11 -7 -4 -10 -4 -6 1 4 4 0 14 -10 22 -15 13 -15 13 6 3 12 -6 22 -13 22
-15z m-364 -21 c1 -9 0 -13 -4 -10 -3 4 -7 14 -8 22 -1 9 0 13 4 10 3 -4 7
-14 8 -22z m44 16 c0 -5 -5 -10 -11 -10 -5 0 -7 5 -4 10 3 6 8 10 11 10 2 0 4
-4 4 -10z m135 2 c-3 -3 0 -11 6 -19 17 -20 5 -16 -14 5 -15 16 -15 19 -2 19
8 0 13 -3 10 -5z m85 -16 c0 -3 -4 -8 -10 -11 -5 -3 -10 -1 -10 4 0 6 5 11 10
11 6 0 10 -2 10 -4z m85 -14 c-3 -3 -11 0 -18 7 -9 10 -8 11 6 5 10 -3 15 -9
12 -12z m95 8 c0 -5 -2 -10 -4 -10 -3 0 -8 5 -11 10 -3 6 -1 10 4 10 6 0 11
-4 11 -10z m30 0 c0 -5 -2 -10 -4 -10 -3 0 -8 5 -11 10 -3 6 -1 10 4 10 6 0
11 -4 11 -10z"/>
<path d="M1647 2453 c-4 -3 -7 -11 -7 -17 0 -6 5 -5 12 2 6 6 9 14 7 17 -3 3
-9 2 -12 -2z"/>
<path d="M1796 2713 c-10 -24 12 -42 27 -22 11 15 32 17 66 8 9 -2 16 4 18 16
2 11 1 16 -4 10 -12 -14 -33 -17 -33 -4 0 8 -5 8 -15 -1 -12 -10 -15 -10 -15
0 0 7 -7 4 -17 -7 -10 -10 -14 -14 -10 -7 4 7 4 15 -1 18 -6 3 -13 -2 -16 -11z"/>
<path d="M1953 2712 c10 -13 9 -14 -9 -4 -16 9 -22 7 -32 -9 -10 -16 -16 -17
-33 -9 -16 9 -26 8 -45 -5 -13 -9 -29 -13 -34 -10 -6 4 -13 -1 -16 -9 -3 -9
-10 -13 -15 -10 -5 3 -9 0 -9 -5 0 -14 17 -14 25 -1 10 16 22 12 39 -15 15
-23 15 -24 -1 -18 -9 4 -14 2 -10 -3 3 -6 2 -16 -3 -23 -6 -11 -12 -11 -31 3
-13 9 -18 17 -11 17 6 1 18 2 24 3 16 1 23 36 8 36 -6 0 -8 -5 -4 -12 4 -6 3
-8 -4 -4 -12 7 -44 -22 -40 -36 2 -5 7 -9 12 -8 5 1 12 -4 17 -11 8 -14 50
-24 48 -11 -4 22 3 34 16 28 19 -7 19 4 1 30 -11 15 -12 22 -3 33 10 12 9 14
-6 8 -11 -4 -16 -3 -12 4 4 5 16 7 27 3 15 -4 18 -3 13 6 -6 9 -3 9 12 1 11
-6 22 -9 24 -6 7 7 4 -60 -3 -71 -5 -7 3 -11 21 -11 21 0 28 5 26 16 -2 9 -4
18 -4 21 -1 3 -6 -2 -11 -10 -5 -8 -10 -10 -11 -5 0 6 -2 20 -3 33 -2 13 1 25
6 28 4 3 6 9 3 14 -3 5 5 7 17 4 13 -3 28 -6 35 -8 7 -1 16 -6 20 -11 5 -4 1
-4 -7 0 -13 8 -13 7 0 -11 14 -18 14 -18 -4 -4 -18 14 -19 14 -5 -7 10 -16 16
-19 22 -10 6 8 7 6 3 -6 -4 -12 -2 -16 7 -11 7 4 7 1 -2 -7 -10 -11 -15 -11
-18 -1 -3 6 -9 10 -13 7 -5 -3 -7 -12 -4 -20 5 -12 10 -12 27 -3 12 6 19 7 14
3 -4 -5 0 -17 10 -27 15 -17 15 -19 0 -36 -10 -10 -14 -22 -10 -26 4 -4 -1 -4
-12 0 -20 7 -20 6 0 -10 11 -10 14 -15 8 -11 -9 4 -11 0 -7 -12 4 -12 3 -14
-3 -6 -6 9 -12 6 -22 -10 -14 -21 -13 -21 5 -7 18 14 18 14 4 -4 -12 -16 -12
-18 -1 -11 10 5 12 4 7 -4 -4 -6 -12 -8 -18 -5 -6 4 -3 -4 8 -18 13 -17 21
-22 26 -14 5 7 8 6 8 -4 0 -12 2 -13 9 -1 7 11 9 11 13 0 3 -8 0 -22 -6 -31
-9 -15 -11 -15 -24 0 -7 9 -11 12 -7 5 3 -8 -1 -11 -15 -8 -24 5 -27 -10 -3
-19 15 -6 15 -8 3 -16 -13 -8 -13 -11 -1 -22 8 -7 11 -8 8 -2 -3 6 0 11 8 11
8 0 12 -3 10 -7 -2 -4 1 -7 8 -7 7 0 13 8 13 18 0 9 -6 15 -12 12 -7 -2 -15 1
-19 8 -5 7 -3 10 6 7 8 -3 22 -1 32 4 17 8 17 7 7 -12 -9 -17 -8 -26 5 -46 15
-24 35 -32 35 -15 0 6 -4 13 -10 16 -14 8 -13 25 2 25 6 0 8 -3 5 -7 -4 -3 -2
-12 5 -20 8 -10 8 -17 0 -25 -9 -9 -17 -7 -32 7 -22 20 -39 14 -24 -8 5 -7 1
-4 -8 6 -11 11 -18 14 -18 7 0 -7 -9 -2 -21 11 l-20 24 18 -30 c14 -22 15 -27
3 -20 -13 8 -13 7 -1 -8 12 -15 11 -20 -5 -40 -19 -21 -19 -21 0 -7 16 12 18
12 11 1 -5 -9 -4 -12 2 -8 6 4 9 -8 8 -30 -1 -31 0 -33 11 -18 12 16 13 13 10
-19 -3 -25 0 -34 8 -29 6 4 4 -2 -4 -12 -9 -12 -10 -16 -2 -11 8 5 11 3 10 -5
-2 -7 3 -13 10 -14 6 0 12 -3 12 -7 0 -5 0 -13 0 -19 0 -5 -10 0 -22 13 -15
16 -18 17 -8 4 14 -19 13 -19 -1 -9 -12 10 -20 9 -37 -3 -17 -12 -22 -12 -22
-2 0 9 -3 9 -10 -2 -6 -10 -10 -11 -10 -2 0 6 -5 12 -11 12 -5 0 -7 -5 -3 -11
5 -8 1 -8 -14 0 -27 14 -35 14 -26 -1 4 -7 3 -8 -5 -4 -6 4 -9 11 -6 16 4 7
-15 7 -55 1 -3 -1 2 -6 10 -11 13 -8 12 -10 -2 -10 -24 0 -23 9 4 37 21 22 13
34 -9 12 -7 -7 -9 1 -8 26 2 24 -1 34 -9 32 -6 -3 -10 -10 -8 -17 2 -7 -5 -21
-14 -31 -10 -11 -12 -19 -6 -19 7 0 12 6 12 13 0 6 5 4 11 -5 6 -12 7 -24 0
-36 -10 -18 -3 -19 134 -18 80 1 145 4 145 9 0 4 3 6 8 5 4 -2 24 14 45 34 34
34 35 38 21 53 -9 9 -14 19 -10 22 3 4 6 3 6 -2 0 -4 8 -1 17 6 15 12 16 12
10 -3 -3 -10 -1 -20 5 -24 6 -4 8 -3 5 3 -4 6 0 14 9 17 9 4 14 13 10 21 -4
11 0 15 11 13 10 -2 18 3 18 12 0 8 5 15 12 15 24 0 43 44 20 47 -7 0 -16 2
-22 2 -17 2 -35 17 -35 28 0 6 6 6 15 -2 9 -7 18 -10 22 -6 3 3 16 0 27 -8 18
-11 23 -11 35 1 12 13 11 14 -8 8 -15 -5 -21 -2 -21 9 0 9 0 19 -1 23 0 4 4 9
10 11 7 2 8 -4 5 -15 -6 -16 -5 -16 9 2 21 26 21 39 1 31 -18 -7 -44 10 -44
29 0 17 38 13 51 -5 10 -13 10 -13 6 1 -3 9 -1 22 4 30 5 9 2 23 -7 37 -23 35
-11 36 19 3 14 -16 23 -32 20 -35 -4 -3 -2 -6 4 -6 22 0 18 13 -14 45 -27 27
-39 33 -51 25 -10 -5 -12 -10 -7 -10 12 0 -16 -20 -29 -20 -5 0 -3 7 4 15 11
13 10 14 -6 8 -17 -6 -17 -5 -5 10 7 9 17 14 22 11 5 -3 17 -1 26 5 20 11 19
11 -52 12 -28 1 -28 2 -11 15 13 9 24 10 37 4 11 -7 26 -6 41 0 22 10 21 10
-4 5 -22 -4 -28 -1 -29 12 -1 10 -2 24 -3 30 0 7 -13 26 -28 42 -27 28 -27 29
-5 29 50 1 97 18 97 34 0 7 -5 6 -13 -1 -14 -11 -27 -5 -27 12 0 6 3 8 6 4 4
-3 13 0 20 8 21 21 17 28 -7 12 -24 -18 -63 -11 -55 10 3 8 1 11 -4 8 -6 -4
-9 -14 -8 -23 2 -11 -5 -18 -17 -20 -15 -2 -21 3 -22 17 -1 13 3 18 11 15 8
-3 16 2 20 12 5 13 4 14 -7 6 -9 -8 -17 -8 -24 -1 -7 7 -14 5 -23 -6 -17 -20
-31 -19 -24 3 5 14 4 15 -5 2 -9 -13 -12 -13 -20 -1 -7 11 -10 9 -16 -8 -3
-12 -10 -19 -15 -16 -5 3 -6 13 -3 23 4 13 2 13 -10 -3 l-16 -20 -1 20 c-1 12
-4 15 -7 7 -4 -9 -8 -10 -18 -2 -10 8 -15 8 -20 -1 -6 -8 -10 -7 -16 2 -7 11
-9 11 -9 1 0 -8 -5 -10 -12 -6 -7 4 -25 8 -40 9 -23 1 -26 -1 -15 -13z m52 -2
c0 -7 36 -6 40 1 4 5 17 2 31 -7 13 -9 24 -13 24 -10 0 4 6 4 13 -1 22 -13 39
-12 33 3 -5 12 -2 12 15 3 16 -8 24 -7 38 5 16 15 17 13 16 -29 -2 -45 -20
-79 -36 -69 -5 3 -9 0 -9 -6 0 -6 -4 -8 -10 -5 -12 7 10 34 25 32 6 -1 10 5
10 13 0 8 5 19 10 23 6 5 -1 5 -14 2 -15 -5 -21 -3 -17 3 3 6 1 14 -5 18 -7 4
-9 3 -6 -2 3 -6 -3 -15 -14 -22 -10 -7 -19 -8 -19 -4 0 5 -7 9 -15 9 -8 0 -11
-5 -8 -11 4 -6 -1 -5 -10 3 -15 12 -20 11 -35 -3 -10 -9 -22 -13 -25 -9 -4 3
-7 1 -7 -4 0 -18 23 -21 46 -6 19 12 22 12 27 -1 4 -9 2 -18 -3 -21 -4 -3 -10
1 -13 7 -2 7 -8 9 -13 5 -5 -4 -2 -12 6 -18 12 -7 11 -8 -5 -6 -11 1 -25 6
-31 9 -6 4 -11 1 -11 -7 0 -7 8 -12 19 -10 12 3 16 0 12 -7 -5 -7 -2 -8 7 -3
11 7 11 5 -1 -9 -13 -16 -12 -20 5 -32 12 -9 14 -14 5 -14 -7 0 -11 -3 -8 -6
4 -3 19 1 36 10 16 8 33 12 37 8 5 -4 5 -2 2 5 -9 15 3 44 15 37 6 -4 5 -10
-3 -15 -12 -8 -12 -11 1 -18 9 -6 19 -6 26 -1 6 6 14 7 17 3 4 -3 -1 -12 -11
-19 -12 -9 -19 -9 -24 -1 -4 6 -10 8 -15 4 -4 -5 -1 -12 7 -17 8 -6 10 -10 4
-10 -6 0 -14 3 -18 7 -11 11 -36 12 -36 2 0 -6 -4 -8 -8 -5 -4 2 -14 0 -22 -5
-13 -8 -13 -10 0 -20 13 -9 13 -10 -1 -6 -9 3 -22 0 -28 -6 -17 -17 -13 4 4
23 13 14 13 17 0 17 -8 0 -11 -5 -8 -10 3 -6 2 -7 -3 -4 -6 3 -10 -3 -11 -13
-1 -11 3 -22 8 -25 5 -4 6 -11 3 -17 -5 -7 -2 -8 6 -3 9 6 11 4 5 -5 -5 -9 -4
-11 4 -6 6 4 9 11 7 15 -3 3 4 7 14 7 10 0 16 -5 14 -11 -3 -5 1 -2 9 8 13 16
15 16 21 2 3 -9 2 -13 -4 -10 -13 8 -43 -41 -34 -56 5 -8 3 -9 -7 -4 -12 7
-12 6 0 -9 13 -15 13 -19 0 -27 -11 -8 -10 -9 6 -7 15 2 20 -2 19 -19 -1 -13
3 -20 7 -17 5 3 7 10 4 15 -8 11 6 11 24 0 11 -7 9 -10 -9 -16 -18 -6 -20 -9
-9 -16 12 -8 12 -11 -1 -19 -12 -8 -12 -10 -1 -10 10 0 11 -3 2 -13 -6 -8 -7
-17 -3 -22 4 -4 -3 -2 -15 4 -19 10 -22 9 -17 -3 3 -9 9 -15 12 -14 21 2 32
-3 26 -13 -4 -8 -9 -7 -15 2 -5 8 -9 10 -9 5 0 -4 -12 -1 -26 9 -15 9 -23 11
-19 4 6 -8 4 -10 -6 -4 -11 7 -12 6 -2 -7 7 -8 9 -19 5 -23 -4 -5 0 -4 8 0 13
7 13 6 2 -7 -13 -17 -27 -66 -14 -54 7 7 8 11 11 37 0 5 6 7 11 4 7 -4 6 -13
-1 -26 -10 -19 -9 -20 13 -9 22 11 22 10 4 -4 -21 -17 -32 -51 -14 -40 7 5 8
2 3 -7 -7 -12 -6 -12 7 -1 13 10 17 10 21 0 8 -21 8 -33 0 -33 -5 0 -14 -4
-20 -8 -8 -5 -13 -4 -13 2 0 6 5 11 10 11 6 0 10 5 10 11 0 5 -4 8 -9 4 -5 -3
-12 -1 -16 5 -4 6 -10 8 -15 5 -4 -3 -7 3 -5 12 1 10 0 23 -4 28 -3 6 -6 21
-6 35 0 14 -5 24 -12 23 -6 -1 -10 5 -8 15 1 9 0 21 -3 27 -9 15 -10 45 -1 51
4 2 14 -5 22 -16 11 -16 16 -18 20 -7 3 8 0 21 -6 28 -7 7 -2 5 11 -6 21 -17
24 -17 39 -2 13 13 14 19 3 31 -7 9 -9 16 -4 16 4 0 3 5 -4 12 -8 8 -15 8 -27
-2 -10 -8 -15 -9 -15 -1 0 6 4 11 9 11 5 0 8 8 6 18 -1 9 -8 16 -16 14 -9 -2
-10 0 -1 10 14 18 -1 43 -28 44 -32 2 -33 3 -20 19 7 8 9 15 5 15 -4 0 -2 7 5
15 7 9 14 26 14 39 1 13 8 31 15 40 11 13 11 19 0 32 -7 9 -14 27 -15 40 0 13
-7 30 -14 39 -7 8 -9 15 -5 15 4 0 2 7 -5 15 -7 8 -16 13 -20 10 -4 -3 -10 1
-13 8 -3 9 2 13 16 11 12 -1 22 -3 22 -4z m302 -49 c10 -17 10 -20 -5 -20 -9
0 -32 -2 -49 -4 -32 -4 -43 5 -23 18 6 4 18 1 27 -7 12 -9 15 -9 9 0 -4 6 -4
17 -1 22 10 16 29 12 42 -9z m-218 -4 c-2 -1 -13 -9 -24 -17 -19 -14 -19 -14
-6 3 7 9 18 17 24 17 6 0 8 -1 6 -3z m85 -3 c9 -3 16 -10 16 -16 0 -5 -4 -7
-9 -3 -12 7 -43 -24 -36 -36 4 -5 1 -9 -5 -9 -6 0 -9 -4 -5 -9 9 -15 -23 -40
-45 -34 -25 7 -25 8 2 46 13 18 21 38 20 46 -2 9 2 12 12 8 8 -3 18 -2 21 3 7
12 9 12 29 4z m77 -61 c24 -27 38 -80 18 -67 -6 3 -19 -2 -29 -11 -10 -9 -24
-14 -29 -10 -16 9 -31 -3 -25 -20 4 -8 11 -12 18 -8 6 4 24 8 41 9 l30 2 -24
-19 c-29 -24 -48 -25 -30 -1 13 15 12 16 -4 3 -13 -10 -14 -17 -6 -27 8 -10 6
-13 -10 -11 -15 1 -19 6 -16 18 3 9 -1 24 -9 32 -13 13 -13 17 3 31 10 9 20
14 23 11 10 -10 16 21 8 35 -7 11 -11 11 -25 0 -15 -12 -16 -12 -13 6 3 17 35
53 49 54 3 0 17 -12 30 -27z m-96 -99 c16 -25 33 -100 17 -79 -12 17 -29 15
-29 -3 0 -24 16 -42 33 -35 10 4 12 0 8 -11 -3 -9 -9 -14 -13 -11 -9 5 -7 -32
2 -41 10 -11 8 -26 -2 -19 -5 3 -13 0 -17 -6 -4 -8 -3 -9 4 -5 7 4 12 5 12 2
0 -3 -8 -10 -18 -15 -14 -7 -18 -6 -18 9 0 10 3 17 7 14 4 -2 9 3 13 11 3 10
-5 20 -24 30 -17 9 -30 19 -31 23 0 4 -2 17 -5 30 -2 12 1 22 6 22 6 0 9 6 8
13 -2 6 5 11 15 9 20 -3 21 2 7 28 -9 16 -7 18 11 15 12 -3 19 -2 16 1 -3 3
-7 4 -10 2 -2 -1 -12 4 -22 12 -11 8 -16 10 -12 3 4 -6 2 -15 -4 -19 -16 -9
-63 -14 -54 -6 3 4 14 7 23 7 11 0 16 7 14 19 -2 10 1 16 5 13 5 -3 15 -2 23
4 8 5 16 9 16 9 1 0 9 -12 19 -26z m95 -48 c0 -2 3 -13 7 -23 6 -16 5 -17 -13
-3 -15 11 -16 11 -6 0 17 -20 15 -35 -3 -20 -12 10 -15 10 -15 -1 0 -12 -2
-12 -9 0 -6 9 -11 10 -15 2 -7 -11 5 -15 32 -12 10 2 10 -2 0 -18 -9 -15 -15
-17 -21 -8 -5 7 -6 2 -2 -12 5 -15 3 -21 -3 -17 -6 3 -14 1 -18 -5 -4 -7 -3
-9 4 -5 6 3 14 1 18 -5 5 -8 3 -9 -6 -4 -9 5 -11 4 -6 -4 4 -6 12 -9 17 -5 6
3 7 -4 4 -19 -5 -17 -2 -26 9 -30 9 -4 16 -11 16 -17 0 -6 -11 -3 -24 7 -14
10 -21 24 -18 33 5 13 4 13 -10 0 -15 -14 -14 -16 8 -28 23 -12 25 -32 3 -32
-6 0 -7 6 -2 13 4 6 -5 4 -21 -6 l-28 -19 7 24 c4 12 4 20 0 16 -11 -10 -15
-59 -5 -53 5 3 11 1 15 -5 7 -11 4 -12 -37 -14 -32 -2 -44 -11 -27 -22 7 -4
10 -3 6 3 -3 5 4 9 16 8 27 -3 59 13 52 25 -3 5 9 15 26 24 29 14 30 14 25 -2
-5 -14 -3 -13 9 2 8 11 15 23 15 28 0 4 5 8 11 8 5 0 7 -4 4 -10 -3 -5 -1 -10
6 -10 7 0 10 -3 7 -6 -4 -3 -10 -6 -15 -6 -15 0 -33 -20 -26 -31 3 -6 1 -7 -5
-3 -7 4 -20 2 -29 -3 -10 -6 -12 -11 -5 -11 6 0 12 -5 12 -11 0 -8 -5 -7 -16
2 -13 10 -17 10 -25 -2 -5 -8 -9 -10 -9 -4 0 5 -5 4 -11 -2 -6 -6 -19 -9 -28
-6 -9 3 -1 -4 17 -16 17 -11 32 -24 32 -28 0 -3 -3 -4 -6 0 -4 3 -15 -4 -25
-16 -18 -21 -20 -21 -30 -4 -5 9 -14 15 -19 12 -5 -3 -11 -1 -15 5 -3 5 1 10
9 10 15 0 19 10 14 28 -2 4 -7 6 -13 4 -5 -2 -7 0 -3 4 4 4 3 13 -3 21 -9 10
-8 13 2 13 8 0 5 6 -7 15 -16 13 -13 13 15 0 27 -14 35 -14 42 -4 4 7 4 20 -1
28 -6 11 2 24 28 47 29 25 34 35 25 45 -9 9 -9 18 3 40 14 29 13 31 -15 33 -8
1 -16 7 -19 15 -3 10 0 12 12 8 10 -4 19 -1 23 8 4 12 9 13 18 5 10 -8 15 -6
20 9 5 18 25 30 25 17z m69 -24 c14 -27 -2 -48 -20 -26 -13 16 -12 17 6 10 15
-5 17 -4 8 5 -15 15 -34 3 -26 -18 4 -9 2 -14 -3 -10 -6 3 -15 2 -22 -2 -9 -6
-7 -14 8 -34 11 -14 16 -28 12 -31 -5 -3 -14 6 -21 20 -6 15 -16 22 -23 18 -8
-5 -6 -11 6 -20 20 -14 5 -29 -20 -20 -13 5 -13 9 0 34 15 29 70 92 80 92 3 0
10 -8 15 -18z m-42 -128 c3 -9 -17 -11 -47 -5 -3 1 2 6 10 11 17 11 32 8 37
-6z m-253 -252 c2 -4 -5 -9 -17 -9 -17 -2 -19 0 -7 7 18 12 18 12 24 2z"/>
<path d="M2005 2691 c11 -13 19 -26 18 -30 -5 -11 22 -8 38 6 8 7 26 11 38 8
13 -2 21 -2 18 1 -3 3 -8 5 -12 4 -3 -1 -17 5 -30 14 -13 9 -26 12 -30 7 -6
-11 -24 -9 -45 4 -8 5 -6 -2 5 -14z m56 -14 c-16 -16 -38 -17 -38 -1 0 7 4 11
8 8 4 -2 10 0 14 6 4 6 11 7 17 4 6 -4 6 -10 -1 -17z"/>
<path d="M2041 2536 c-10 -11 -9 -14 1 -12 14 2 23 15 15 22 -2 2 -10 -2 -16
-10z"/>
<path d="M2019 2466 c-1 -3 -2 -9 -3 -13 -1 -5 -5 -13 -9 -20 -5 -8 -1 -11 13
-8 12 2 26 -4 35 -18 13 -18 17 -16 14 9 0 4 5 11 13 15 9 6 9 9 1 9 -6 0 -15
-5 -18 -10 -5 -8 -11 -7 -21 1 -7 6 -12 15 -9 19 3 5 1 11 -5 15 -5 3 -11 4
-11 1z"/>
<path d="M2016 2238 c1 -13 3 -25 4 -28 1 -3 2 -8 2 -12 -1 -3 5 -11 13 -18
11 -9 13 -7 10 7 -2 10 -4 18 -5 18 -1 0 -3 8 -5 19 -5 28 -22 41 -19 14z"/>
<path d="M2060 2241 c0 -6 4 -13 10 -16 6 -3 7 1 4 9 -7 18 -14 21 -14 7z"/>
<path d="M2275 2660 c-3 -5 -1 -10 4 -10 6 0 11 5 11 10 0 6 -2 10 -4 10 -3 0
-8 -4 -11 -10z"/>
<path d="M2145 2640 c-4 -6 -11 -7 -17 -4 -7 4 -8 2 -4 -5 6 -9 12 -9 24 1 10
7 19 14 21 15 2 2 -1 3 -7 3 -6 0 -14 -5 -17 -10z"/>
<path d="M2096 2583 c-11 -14 -14 -23 -8 -19 7 4 12 2 12 -4 0 -7 5 -6 14 2 8
7 10 15 5 16 -6 2 -5 10 2 18 6 8 8 14 3 14 -5 0 -18 -12 -28 -27z"/>
<path d="M2202 2594 c-7 -8 -8 -14 -3 -14 10 0 25 19 20 25 -2 1 -10 -3 -17
-11z"/>
<path d="M2227 2587 c-3 -8 -1 -20 3 -28 5 -8 4 -19 -2 -26 -19 -23 -4 -20 19
4 12 12 18 25 12 28 -5 4 -9 0 -9 -7 0 -10 -3 -9 -10 2 -6 9 -5 17 2 21 7 4 7
9 0 13 -5 3 -12 0 -15 -7z"/>
<path d="M2147 2443 c3 -7 6 -13 8 -13 2 0 5 6 8 13 3 8 -1 14 -8 14 -7 0 -11
-6 -8 -14z"/>
<path d="M2110 2425 c1 -5 1 -12 0 -15 -9 -25 -6 -38 8 -32 14 5 15 3 4 -10
-10 -13 -10 -17 2 -21 23 -9 29 9 12 35 -8 13 -15 27 -15 31 1 5 -2 12 -6 15
-4 4 -6 3 -5 -3z"/>
<path d="M2111 2116 c-8 -10 -8 -16 3 -25 9 -8 16 -8 20 -2 4 5 2 12 -4 16 -6
4 -8 11 -5 16 9 14 -1 11 -14 -5z"/>
<path d="M2302 2714 c-14 -16 -5 -18 17 -5 7 5 9 11 5 14 -5 3 -15 -1 -22 -9z"/>
<path d="M1647 2693 c-4 -3 -7 -11 -7 -17 0 -6 5 -5 12 2 6 6 9 14 7 17 -3 3
-9 2 -12 -2z"/>
<path d="M1933 2677 c-8 -13 -12 -50 -5 -42 3 3 11 0 19 -7 10 -8 17 -8 25 0
13 13 0 35 -18 28 -7 -3 -16 0 -20 6 -4 6 -3 8 2 5 6 -3 16 -2 23 2 10 6 9 10
-3 14 -8 3 -19 1 -23 -6z m37 -37 c0 -5 -5 -10 -11 -10 -5 0 -7 5 -4 10 3 6 8
10 11 10 2 0 4 -4 4 -10z"/>
<path d="M1857 2659 c-9 -6 -15 -15 -11 -20 3 -6 12 -3 21 8 8 10 12 13 9 7
-3 -7 -8 -28 -10 -47 -4 -28 -2 -35 9 -30 8 3 13 9 10 13 -3 5 -1 11 3 14 5 3
8 15 6 28 -1 13 -3 26 -3 31 -1 10 -12 8 -34 -4z"/>
<path d="M2323 2612 c-11 -15 -24 -23 -29 -19 -5 4 -2 12 6 17 8 6 11 10 5 10
-5 0 -16 -4 -23 -8 -9 -7 -8 -13 8 -27 13 -12 18 -26 15 -39 -3 -12 -2 -15 1
-8 5 10 9 10 20 1 10 -8 14 -8 14 0 0 6 -5 11 -12 11 -6 0 -3 9 7 20 10 11 13
20 7 20 -6 0 -12 -6 -15 -12 -2 -7 -8 -10 -12 -5 -5 4 2 18 15 32 13 14 21 27
19 30 -3 2 -15 -8 -26 -23z"/>
<path d="M1786 2598 c3 -5 10 -6 15 -3 13 9 11 12 -6 12 -8 0 -12 -4 -9 -9z"/>
<path d="M1955 2590 c4 -22 -5 -26 -21 -10 -7 7 -19 6 -39 -4 -30 -16 -59 -11
-48 8 3 6 2 7 -3 3 -5 -5 -9 -14 -9 -20 0 -7 -9 -12 -19 -12 -13 0 -20 -8 -21
-25 -1 -13 -7 -26 -13 -28 -14 -4 3 -42 19 -42 6 0 7 5 3 12 -4 6 -3 8 3 5 6
-4 14 0 17 9 5 12 1 14 -17 10 -12 -3 -16 -3 -9 0 6 3 10 9 7 13 -2 5 7 19 22
32 14 13 24 19 20 14 -3 -6 1 -19 10 -30 14 -19 15 -19 11 4 -2 15 3 26 12 28
13 4 13 3 0 -6 -11 -8 -12 -11 -2 -11 7 0 11 -4 7 -9 -3 -5 0 -13 6 -17 8 -4
9 -3 5 4 -4 7 -3 12 2 12 5 0 9 10 8 22 0 11 6 23 14 25 12 4 12 3 1 -5 -9 -7
-10 -12 -2 -16 6 -4 11 -1 11 6 1 7 6 3 13 -10 9 -16 16 -19 24 -11 8 8 13 7
18 -2 6 -8 4 -10 -5 -4 -9 5 -11 4 -6 -4 4 -6 4 -11 -1 -10 -22 4 -25 -2 -7
-16 14 -11 15 -14 3 -9 -21 7 -35 -14 -20 -29 14 -14 34 4 36 32 1 11 12 28
25 39 21 17 23 22 11 36 -8 9 -20 15 -28 12 -8 -3 -16 1 -19 9 -9 22 -23 18
-19 -5z m40 -14 c18 7 30 -15 15 -29 -9 -9 -15 -7 -26 7 -8 11 -14 14 -14 8 0
-7 -5 -12 -11 -12 -8 0 -9 4 0 13 6 8 9 16 7 19 -1 3 1 2 7 -2 5 -5 15 -6 22
-4z m-25 -96 c0 -5 -2 -10 -4 -10 -3 0 -8 5 -11 10 -3 6 -1 10 4 10 6 0 11 -4
11 -10z"/>
<path d="M1990 2560 c0 -5 5 -10 10 -10 6 0 10 5 10 10 0 6 -4 10 -10 10 -5 0
-10 -4 -10 -10z"/>
<path d="M2355 2569 c-4 -6 -5 -12 -2 -15 2 -3 7 2 10 11 7 17 1 20 -8 4z"/>
<path d="M1915 2528 c2 -10 1 -18 -3 -19 -46 -5 -54 -4 -63 13 -8 16 -13 17
-25 7 -12 -10 -12 -14 -2 -20 6 -4 15 -6 19 -3 4 2 11 -5 14 -17 7 -20 7 -20
21 -2 14 17 14 17 5 -4 -8 -16 -7 -22 5 -27 11 -4 15 -2 11 8 -6 16 19 43 30
32 3 -3 2 -6 -3 -6 -5 0 -10 -9 -11 -21 -1 -15 3 -19 13 -15 10 4 12 2 8 -6
-5 -7 -3 -8 6 -3 9 5 11 4 6 -3 -5 -8 -2 -10 8 -6 13 5 12 9 -6 23 -14 12 -18
22 -12 32 12 20 14 39 3 39 -6 0 -8 4 -5 8 3 5 -1 9 -9 9 -7 0 -12 -8 -10 -19z"/>
<path d="M2350 2528 c1 -7 8 -24 16 -38 10 -16 13 -18 8 -5 -4 11 -7 28 -8 38
0 9 -4 17 -8 17 -4 0 -8 -6 -8 -12z"/>
<path d="M2342 2475 c6 -14 18 -25 27 -25 14 1 13 2 -1 11 -10 5 -18 17 -18
24 0 8 -4 15 -10 15 -6 0 -5 -10 2 -25z"/>
<path d="M1830 2475 c0 -8 5 -15 10 -15 6 0 10 7 10 15 0 8 -4 15 -10 15 -5 0
-10 -7 -10 -15z"/>
<path d="M1797 2453 c-9 -3 -15 -9 -11 -14 4 -6 11 -6 20 2 10 8 14 8 14 0 0
-6 -6 -12 -12 -12 -7 -1 -19 -2 -26 -3 -21 -2 -32 -28 -21 -49 10 -17 12 -17
34 -3 14 9 32 13 42 9 16 -6 16 -5 4 10 -13 16 -16 16 -38 1 -14 -8 -27 -13
-31 -10 -3 3 1 6 9 6 12 0 11 2 -1 10 -12 7 -11 9 5 9 38 -1 59 8 66 27 4 10
8 13 8 6 1 -7 6 -10 11 -7 6 4 17 1 25 -5 8 -7 15 -9 15 -5 0 4 7 2 15 -5 8
-6 19 -9 26 -5 8 5 8 2 1 -11 -5 -11 -7 -25 -4 -33 2 -8 -3 -18 -12 -23 -12
-7 -14 -13 -6 -29 6 -10 7 -19 3 -19 -4 0 -1 -5 7 -11 13 -10 13 -10 0 -6 -12
4 -16 -3 -17 -29 0 -19 4 -31 9 -28 5 3 6 14 3 25 -7 22 4 24 30 6 19 -15 12
-42 -9 -34 -7 3 -12 -4 -12 -17 0 -17 5 -22 21 -20 24 2 30 -21 11 -45 -8 -11
-8 -13 1 -7 9 5 11 2 7 -8 -4 -10 1 -18 11 -22 13 -6 14 -9 3 -16 -10 -8 -10
-9 2 -6 16 5 23 58 7 55 -6 -1 -11 12 -11 28 -1 17 -7 31 -13 31 -7 1 -18 2
-24 3 -6 0 -1 9 12 20 19 15 21 21 11 33 -6 8 -9 18 -5 21 3 4 1 12 -5 20 -7
8 -7 18 -2 27 5 9 5 19 -2 27 -11 14 -4 28 13 28 5 0 9 3 9 8 0 4 0 12 0 18 0
6 -7 9 -14 6 -11 -4 -13 -1 -9 10 5 12 2 15 -9 11 -9 -4 -20 -2 -25 3 -16 16
-100 30 -136 22z m187 -61 c2 -4 -5 -9 -17 -9 -17 -2 -19 0 -7 7 18 12 18 12
24 2z m-21 -68 c-4 -12 -8 -13 -14 -3 -9 15 -2 32 11 24 5 -3 6 -13 3 -21z m7
-45 c0 -5 -4 -9 -8 -9 -5 0 -9 7 -9 15 0 8 4 12 9 9 4 -3 8 -9 8 -15z"/>
<path d="M1857 2419 c-9 -6 -15 -15 -12 -20 4 -5 11 -7 16 -4 5 4 9 1 9 -5 0
-6 5 -8 10 -5 8 5 7 12 -2 23 -10 12 -10 14 0 8 6 -4 12 -2 12 3 0 14 -10 13
-33 0z"/>
<path d="M1901 2411 c-7 -5 -12 -11 -12 -15 3 -21 -3 -24 -36 -21 -41 3 -87
-20 -79 -40 2 -7 -1 -18 -7 -24 -7 -7 -8 -14 -1 -21 15 -15 63 25 61 50 -1 11
-6 20 -11 20 -5 0 -7 3 -4 6 4 3 15 1 26 -5 15 -8 22 -8 26 2 3 6 4 3 1 -9 -4
-14 0 -21 10 -21 8 0 14 5 13 11 -3 17 21 56 35 56 8 0 6 -4 -3 -10 -13 -9
-13 -11 0 -21 13 -9 12 -10 -2 -5 -10 3 -20 1 -23 -4 -4 -6 -2 -10 2 -10 5 0
9 -11 9 -25 0 -17 -3 -21 -11 -15 -12 10 -25 4 -25 -12 0 -5 4 -7 9 -4 5 3 15
-1 22 -10 7 -8 8 -14 3 -13 -21 4 -35 -2 -29 -11 4 -6 10 -8 15 -5 5 3 12 0
16 -6 5 -8 3 -9 -7 -4 -8 5 -11 4 -6 0 4 -5 0 -17 -10 -27 -18 -20 -5 -25 16
-5 11 10 12 9 6 -2 -5 -9 -4 -12 3 -7 6 3 14 1 18 -6 4 -7 4 -10 -1 -6 -10 9
-35 -10 -35 -25 0 -7 4 -7 12 1 9 9 16 8 30 -5 12 -10 18 -12 18 -4 0 7 5 9
11 5 8 -4 7 -9 -2 -16 -11 -8 -11 -9 1 -5 25 6 18 32 -8 30 -19 -2 -22 1 -18
22 3 15 0 24 -7 22 -15 -3 -18 75 -3 85 8 6 8 8 -1 8 -13 0 -12 18 2 40 21 34
5 78 -24 61z m-94 -68 c0 -22 -15 -43 -31 -43 -6 0 -3 5 7 11 9 6 15 14 12 20
-4 5 -3 14 0 19 9 14 12 12 12 -7z"/>
<path d="M2016 2378 c3 -5 10 -6 15 -3 13 9 11 12 -6 12 -8 0 -12 -4 -9 -9z"/>
<path d="M2340 2381 c0 -6 7 -11 15 -11 7 0 19 -8 25 -17 6 -10 10 -12 8 -4
-5 19 -48 48 -48 32z"/>
<path d="M2390 2380 c0 -5 5 -10 11 -10 5 0 7 5 4 10 -3 6 -8 10 -11 10 -2 0
-4 -4 -4 -10z"/>
<path d="M2295 2360 c-3 -5 -1 -10 4 -10 6 0 11 5 11 10 0 6 -2 10 -4 10 -3 0
-8 -4 -11 -10z"/>
<path d="M1837 2339 c12 -12 -9 -39 -47 -59 -11 -6 -20 -16 -19 -23 3 -24 -1
-37 -12 -37 -8 0 -8 4 0 14 8 10 9 16 1 21 -5 3 -10 1 -10 -4 0 -6 -9 -20 -21
-32 -19 -19 -19 -23 -6 -36 13 -13 18 -13 40 2 14 9 24 22 21 30 -3 7 0 16 5
20 6 3 9 11 6 16 -8 13 4 31 16 23 6 -3 4 -16 -6 -31 -23 -34 -12 -40 13 -8
19 24 51 27 37 4 -4 -5 0 -9 7 -9 7 -1 2 -7 -11 -14 -20 -11 -21 -14 -7 -19
24 -9 9 -29 -16 -21 -18 5 -19 4 -7 -18 7 -12 12 -26 11 -30 -1 -5 3 -8 9 -8
8 0 7 -6 -2 -17 -11 -15 -11 -16 1 -5 8 6 17 12 20 12 11 0 8 -34 -3 -42 -6
-3 1 -6 14 -5 13 0 33 -3 44 -7 16 -6 17 -6 5 3 -13 9 -13 11 2 11 9 0 19 -4
22 -9 5 -7 24 -8 61 -2 6 1 2 6 -8 12 -9 6 -15 14 -12 19 6 10 -63 77 -73 70
-4 -3 -6 -9 -4 -14 1 -4 -3 -15 -10 -24 -11 -13 -10 -15 5 -9 10 4 20 7 23 7
2 0 1 8 -2 18 -5 14 -4 14 4 2 6 -8 8 -18 5 -24 -4 -5 1 -7 10 -3 9 3 19 1 23
-5 5 -7 2 -8 -6 -3 -9 5 -11 4 -6 -3 4 -7 2 -10 -6 -9 -7 2 -10 2 -5 0 4 -3 7
-9 7 -15 0 -6 -7 -5 -16 3 -13 10 -17 10 -24 -1 -7 -11 -11 -10 -25 3 -9 10
-12 17 -7 17 5 0 9 7 9 15 0 9 -6 14 -14 11 -7 -3 -18 4 -24 16 -6 11 -7 18
-2 16 4 -2 18 6 31 18 22 21 23 22 3 17 -24 -6 -28 9 -6 27 12 10 13 16 3 27
-16 20 -18 55 -4 72 8 11 8 13 -2 7 -7 -4 -15 -1 -18 8 -3 9 -11 16 -17 16 -8
0 -8 -3 0 -11z m18 -50 c10 -15 -1 -23 -20 -15 -9 3 -13 10 -10 16 8 13 22 13
30 -1z m-95 -89 c-20 -13 -33 -13 -25 0 3 6 14 10 23 10 15 0 15 -2 2 -10z
m210 -120 c-6 -11 -13 -20 -16 -20 -2 0 0 9 6 20 6 11 13 20 16 20 2 0 0 -9
-6 -20z"/>
<path d="M2340 2340 c0 -5 7 -7 15 -4 8 4 15 8 15 10 0 2 -7 4 -15 4 -8 0 -15
-4 -15 -10z"/>
<path d="M2330 2305 c-9 -10 -9 -15 -1 -15 6 0 11 5 11 11 0 5 5 7 12 3 7 -4
8 -3 4 4 -9 15 -11 15 -26 -3z"/>
<path d="M1947 2244 c6 -15 23 -19 23 -5 0 5 -7 11 -14 14 -10 4 -13 1 -9 -9z"/>
<path d="M1812 2217 c-36 -37 -41 -53 -13 -37 11 5 28 7 38 4 16 -5 17 -5 1 6
-16 10 -15 45 1 35 4 -2 8 2 8 10 0 19 2 20 -35 -18z"/>
<path d="M1687 2183 c-11 -10 -8 -25 3 -18 6 4 23 -2 38 -12 40 -27 56 -32 70
-21 17 15 15 41 -3 35 -8 -4 -17 -2 -21 4 -4 6 -11 6 -20 -2 -11 -9 -18 -8
-32 5 -20 18 -26 19 -35 9z m103 -37 c-4 -4 -16 -4 -26 2 -16 9 -14 10 8 9 15
-1 23 -6 18 -11z"/>
<path d="M1866 2154 c-4 -9 -4 -19 -1 -22 3 -3 5 0 5 8 0 10 3 10 17 -1 15
-13 15 -12 4 9 -14 26 -17 27 -25 6z"/>
<path d="M1900 2100 c-8 -5 -10 -10 -5 -10 6 0 17 5 25 10 8 5 11 10 5 10 -5
0 -17 -5 -25 -10z"/>
<path d="M58 1882 l-58 -3 0 -354 0 -354 308 4 c169 2 317 6 330 9 13 3 20 1
17 -5 -8 -12 2 -12 27 2 15 8 19 8 14 0 -8 -12 6 -15 18 -4 10 11 37 12 30 2
-3 -5 2 -9 10 -9 9 0 16 5 16 11 0 6 5 7 13 2 17 -11 187 -11 187 0 0 5 7 4
15 -3 10 -8 15 -9 15 -2 0 6 -8 16 -17 21 -10 6 -13 11 -6 11 6 0 18 -8 25
-18 12 -17 82 -27 71 -10 -2 5 1 8 6 8 6 0 11 -4 11 -9 0 -10 55 -7 91 4 12 4
19 3 16 -1 -4 -7 74 -10 129 -5 6 1 22 16 35 35 13 19 27 32 31 30 5 -3 7 0 6
8 -2 7 2 12 9 11 7 -2 10 4 7 12 -4 8 -10 15 -16 15 -5 0 -6 -5 -2 -12 4 -6 3
-8 -4 -4 -6 3 -14 1 -18 -5 -5 -8 -3 -9 6 -4 8 5 11 4 6 -3 -4 -6 -14 -8 -24
-5 -15 6 -15 5 -3 -10 7 -9 9 -17 4 -17 -6 0 -15 -10 -21 -22 -6 -13 -11 -17
-11 -9 -1 11 -5 10 -16 -5 -9 -12 -17 -15 -22 -8 -5 5 -24 9 -43 8 -25 -1 -41
5 -56 22 -21 22 -21 23 -3 42 10 11 15 23 12 26 -4 3 -2 6 4 6 6 0 13 -7 17
-15 3 -8 11 -15 17 -15 8 0 8 4 0 13 -8 10 -7 17 1 25 8 8 5 10 -13 8 -14 -1
-30 -5 -36 -9 -15 -10 -25 21 -13 41 5 10 10 13 10 9 0 -4 8 -3 18 2 14 8 18
20 17 56 -2 34 1 45 11 41 7 -3 18 3 26 11 11 14 11 16 -4 10 -11 -4 -15 -2
-12 6 2 8 -4 13 -17 14 -17 2 -18 -1 -9 -13 9 -10 9 -14 1 -14 -6 0 -11 5 -11
11 0 5 -3 8 -7 6 -5 -3 -13 1 -20 8 -10 11 -3 13 38 10 38 -2 47 0 40 9 -6 7
-29 11 -53 10 -54 -2 -61 2 -47 29 18 33 49 50 49 26 0 -5 -4 -8 -9 -4 -11 6
-44 -36 -35 -44 3 -3 12 3 20 13 8 11 14 16 14 12 0 -5 7 -3 15 4 8 7 12 16 9
21 -3 5 0 17 5 27 7 14 6 25 -5 41 -15 20 -34 21 -34 0 0 -6 4 -8 9 -4 15 9
23 -13 11 -32 -9 -16 -10 -15 -5 5 4 12 3 22 -2 21 -27 -5 -33 1 -21 21 8 12
19 18 30 15 9 -3 20 0 24 6 5 8 2 10 -8 7 -8 -4 -21 -3 -28 2 -7 4 8 7 35 6
29 0 50 4 52 10 3 8 -9 11 -34 9 -21 -1 -44 2 -50 7 -9 7 -13 7 -13 -1 0 -6
-5 -11 -11 -11 -5 0 -7 5 -4 10 3 6 1 10 -5 10 -6 0 -13 -7 -16 -15 -4 -8 -10
-15 -15 -15 -5 0 -4 9 3 20 10 15 21 19 41 16 19 -3 27 0 24 7 -2 7 -13 11
-23 10 -10 -1 -13 0 -6 3 6 3 12 12 12 19 0 8 4 17 10 20 6 4 9 -3 7 -16 -1
-12 3 -24 9 -26 6 -2 10 8 9 26 -1 26 1 29 16 20 24 -13 29 -11 23 6 -4 8 -11
12 -17 8 -6 -4 -7 -1 -2 7 6 10 4 12 -8 7 -10 -3 -17 -2 -17 3 0 6 9 10 20 10
11 0 20 5 20 10 0 6 -7 10 -16 8 -10 -2 -18 3 -20 10 -1 7 0 8 3 2 3 -8 9 -7
19 1 8 6 14 7 14 2 0 -5 9 -9 20 -9 11 0 20 3 20 6 0 3 20 5 45 6 25 0 45 -5
45 -11 0 -5 5 -3 10 5 8 12 10 12 10 1 0 -11 3 -11 17 0 14 12 16 12 8 0 -6
-10 -4 -12 5 -6 9 6 11 4 5 -5 -6 -9 -4 -11 6 -6 8 4 5 0 -5 -8 -11 -9 -15
-16 -10 -16 6 0 14 3 18 7 11 12 37 12 30 1 -4 -6 -3 -8 3 -5 5 3 9 -7 9 -23
0 -16 -4 -26 -9 -23 -6 4 -7 1 -2 -8 12 -19 13 -69 2 -62 -6 3 -7 2 -4 -4 4
-6 0 -19 -8 -29 -13 -16 -14 -17 -9 -1 7 19 -4 22 -26 6 -13 -10 -13 -10 1 -6
9 3 16 -1 16 -9 0 -7 -5 -10 -11 -7 -6 4 -4 -2 4 -12 12 -15 12 -17 1 -10 -10
6 -12 4 -6 -6 5 -8 -1 -5 -13 5 -15 13 -22 15 -22 6 0 -7 -3 -10 -6 -7 -12 12
-43 -13 -37 -29 6 -15 18 -10 18 8 0 6 11 13 25 14 l25 4 -25 -20 c-14 -11
-20 -20 -14 -20 6 0 14 3 18 7 11 11 36 12 36 1 0 -6 -7 -7 -16 -4 -13 5 -14
4 -6 -7 7 -8 11 -16 9 -18 -1 -2 3 1 9 8 6 7 14 10 18 6 3 -4 -6 -14 -20 -24
-19 -12 -22 -19 -13 -24 7 -5 19 0 29 13 10 12 20 18 24 15 3 -3 -2 -12 -12
-20 -15 -12 -15 -12 0 -7 11 4 21 -2 28 -16 7 -12 18 -19 26 -16 22 8 17 2
-18 -24 -18 -13 -27 -17 -21 -9 10 13 10 16 -2 16 -8 0 -11 -5 -8 -10 4 -6 1
-7 -8 -2 -11 7 -11 5 1 -10 8 -10 10 -16 4 -12 -6 3 -11 0 -11 -8 0 -8 5 -11
11 -8 6 4 4 -2 -4 -12 -13 -17 -13 -18 0 -10 12 7 13 6 4 -6 -6 -8 -10 -22 -9
-31 2 -10 -1 -20 -6 -24 -5 -3 -6 -10 -3 -16 4 -6 -3 -5 -16 2 -18 10 -21 9
-15 -1 5 -8 4 -10 -3 -5 -8 5 -10 2 -6 -8 4 -11 0 -16 -12 -16 -17 0 -17 -1 1
-14 17 -13 22 -11 42 10 13 14 23 30 23 35 0 6 4 7 10 4 6 -4 7 1 3 12 -3 10
-3 15 2 11 10 -10 37 11 29 23 -3 5 2 9 10 9 9 0 16 7 16 16 0 8 5 12 10 9 6
-4 9 -1 8 6 -2 7 3 13 9 14 7 0 30 23 52 52 21 29 42 49 45 45 4 -3 4 2 0 11
-3 10 -3 17 2 15 17 -4 73 58 64 71 -5 9 -10 10 -14 2 -4 -6 -12 -11 -18 -11
-6 0 4 15 22 34 19 19 39 32 46 29 7 -2 15 1 19 6 3 6 11 8 17 5 7 -4 8 -2 4
4 -4 6 -2 20 4 31 8 16 7 22 -9 31 -28 15 -35 12 -17 -6 26 -25 18 -40 -8 -15
-15 14 -26 19 -31 12 -3 -6 -11 -11 -17 -11 -7 0 -7 4 -1 13 6 6 9 28 8 47 -1
19 1 42 5 50 6 11 2 15 -15 15 -13 0 -21 -3 -18 -7 6 -11 -11 -10 -25 2 -9 7
-9 7 -2 -2 15 -18 12 -32 -3 -19 -8 6 -18 7 -22 3 -5 -4 -6 0 -3 9 4 9 1 16
-7 16 -8 0 -13 -5 -12 -10 1 -5 -4 -12 -11 -14 -7 -3 -11 1 -10 8 2 10 -125
14 -657 16 -363 2 -700 4 -750 6 -49 1 -116 1 -147 -1z m874 -34 c-2 -10 -6
-18 -7 -18 -1 0 -5 8 -7 18 -3 11 0 19 7 19 7 0 10 -8 7 -19z m52 10 c-3 -4
-11 -5 -19 -1 -21 7 -19 12 4 10 11 0 18 -5 15 -9z m32 -3 c-11 -8 -15 -19
-11 -27 7 -11 6 -11 -6 0 -12 11 -11 15 5 28 11 8 22 14 25 14 3 0 -2 -7 -13
-15z m110 -27 c15 -21 32 -38 38 -38 18 0 35 21 30 35 -3 7 -1 16 5 19 16 10
8 -38 -9 -51 -24 -20 -37 -15 -67 25 -15 20 -37 39 -48 40 -16 3 -18 1 -7 -9
6 -7 12 -17 12 -23 0 -5 -6 -1 -14 9 -17 24 -12 34 14 32 11 -1 32 -18 46 -39z
m20 27 c-3 -8 -1 -15 3 -15 5 0 12 6 14 13 4 9 6 9 6 0 1 -17 -19 -27 -31 -15
-6 6 -7 15 -4 21 10 16 19 13 12 -4z m64 11 c0 -2 -7 -6 -15 -10 -8 -3 -15 -1
-15 4 0 6 7 10 15 10 8 0 15 -2 15 -4z m302 -13 c-16 -12 -15 -13 3 -6 11 3
25 9 30 12 20 11 62 8 62 -5 0 -11 -4 -11 -14 -2 -8 6 -13 7 -12 2 4 -23 -2
-26 -17 -8 -8 10 -12 13 -8 5 5 -10 3 -12 -7 -7 -8 4 -6 1 3 -7 10 -8 15 -17
11 -20 -3 -4 -12 1 -20 11 -9 10 -11 11 -7 2 7 -13 6 -13 -12 0 -17 14 -18 13
-7 -1 7 -9 10 -19 6 -23 -4 -4 0 -4 10 0 10 3 17 1 17 -5 0 -6 -3 -10 -7 -10
-24 4 -35 -2 -26 -13 6 -7 9 -21 8 -31 -2 -10 1 -15 8 -11 7 3 3 -2 -7 -10
-19 -15 -12 -22 17 -17 9 1 9 -3 1 -23 -6 -15 -8 -15 -21 1 -13 17 -13 16 -4
-4 15 -30 14 -36 -5 -29 -9 3 -12 2 -9 -5 4 -6 13 -8 19 -6 7 3 13 -1 13 -8 0
-8 -7 -11 -16 -7 -9 3 -4 -5 12 -17 25 -21 28 -41 6 -41 -6 0 -8 4 -5 8 7 12
-12 38 -21 28 -4 -5 -2 -11 6 -14 11 -4 11 -6 0 -13 -12 -7 -12 -9 0 -9 11 0
9 -4 -5 -16 -18 -14 -18 -15 4 -4 17 8 22 8 20 -2 -2 -8 5 -12 17 -11 11 1 14
0 8 -3 -7 -3 -13 -10 -13 -16 0 -7 5 -6 14 1 11 10 16 9 24 -5 6 -11 11 -13
16 -5 4 6 2 11 -5 11 -20 0 -1 14 21 15 21 2 19 -2 -27 -53 -7 -7 -13 -18 -13
-23 0 -6 -4 -8 -9 -5 -9 6 -66 -53 -66 -68 0 -5 -7 -10 -16 -12 -14 -2 -19 20
-9 34 2 1 3 10 4 20 1 22 25 54 35 48 4 -3 12 4 18 14 9 14 9 22 -3 36 -12 17
-13 17 -8 2 4 -11 1 -18 -6 -18 -6 0 -9 4 -6 9 3 5 -1 12 -10 15 -9 4 -14 9
-11 13 4 3 -5 19 -19 36 -19 23 -22 32 -13 43 6 8 8 14 5 14 -4 0 4 15 17 33
19 26 24 44 23 92 -1 60 -10 90 -26 80 -4 -3 -12 1 -18 8 -8 9 -1 12 29 13 34
1 37 -1 21 -13z m-745 -8 c0 -8 -4 -12 -9 -9 -5 3 -6 10 -3 15 9 13 12 11 12
-6z m96 0 c-3 -9 -8 -14 -10 -11 -3 3 -2 9 2 15 9 16 15 13 8 -4z m43 -11 c1
-9 0 -13 -4 -10 -3 4 -7 14 -8 22 -1 9 0 13 4 10 3 -4 7 -14 8 -22z m819 -16
c0 -43 -27 -98 -39 -79 -4 5 3 16 15 24 13 9 16 17 10 22 -6 3 -11 11 -11 16
0 6 5 7 12 3 6 -4 8 -3 5 4 -4 5 -17 8 -29 4 -14 -3 -19 -1 -14 6 4 8 2 10 -7
6 -8 -3 -18 0 -22 5 -3 6 -11 9 -16 6 -5 -4 -2 -17 7 -31 16 -24 10 -31 -14
-15 -8 4 -13 12 -12 17 1 5 -3 9 -9 10 -8 2 -7 1 0 -3 8 -4 7 -8 -2 -14 -11
-7 -11 -9 -1 -9 7 0 10 -5 6 -11 -4 -8 -9 -7 -16 2 -7 11 -8 10 -4 -4 3 -11 2
-16 -4 -12 -6 3 -10 2 -10 -4 0 -6 -8 -8 -17 -5 -15 5 -15 4 1 -6 15 -10 16
-14 5 -22 -11 -8 -10 -9 3 -5 12 4 16 1 13 -14 -2 -10 -1 -19 3 -19 4 0 8 -9
9 -21 2 -17 -1 -18 -13 -8 -8 6 -17 9 -21 5 -3 -3 -1 -6 7 -6 10 0 10 -4 -1
-17 -12 -16 -12 -17 2 -6 9 7 19 10 22 6 10 -9 9 -25 -1 -19 -16 10 -30 -9
-16 -22 8 -7 14 -8 14 -3 0 6 7 8 17 4 13 -5 12 -8 -8 -15 -13 -5 -19 -12 -14
-16 6 -4 12 -16 13 -26 3 -17 1 -18 -12 -7 -8 7 -21 9 -28 5 -8 -5 -6 2 4 18
14 21 15 28 4 37 -16 13 -13 75 4 96 12 15 3 21 -24 16 -5 -1 -4 4 2 12 7 8 9
17 5 21 -10 10 -14 48 -5 42 5 -3 19 8 31 25 12 16 26 27 32 23 5 -3 15 -1 22
5 14 11 35 10 56 -3 9 -6 17 -3 23 8 15 27 23 18 23 -26z m-927 -14 c-12 -12
-17 -13 -23 -3 -5 7 -4 10 3 5 17 -10 25 13 11 32 -12 15 -11 15 6 0 18 -17
18 -19 3 -34z m252 25 c0 -5 -8 -9 -17 -8 -11 0 -13 3 -5 6 6 2 9 10 6 15 -4
7 -2 8 4 4 7 -4 12 -11 12 -17z m-73 -5 c-3 -3 -12 -4 -19 -1 -8 3 -5 6 6 6
11 1 17 -2 13 -5z m133 -9 c11 -13 10 -14 -4 -9 -9 3 -16 10 -16 15 0 13 6 11
20 -6z m70 5 c0 -5 -8 -10 -17 -10 -15 0 -16 2 -3 10 19 12 20 12 20 0z m520
-40 c0 -13 -24 -26 -47 -28 -13 0 -23 4 -23 9 0 6 -5 7 -11 3 -8 -4 -7 -9 2
-16 10 -6 6 -8 -11 -4 -14 3 -19 3 -12 0 6 -3 10 -10 7 -15 -4 -5 2 -6 12 -2
15 5 16 4 7 -8 -13 -16 -15 -51 -2 -43 4 3 8 1 8 -5 0 -5 -5 -13 -10 -16 -6
-4 -8 -11 -5 -16 3 -5 -1 -6 -10 -3 -12 5 -13 9 -4 20 9 11 8 14 -2 14 -11 0
-11 2 1 10 11 7 11 10 2 10 -7 0 -10 5 -7 10 3 6 1 10 -5 10 -6 0 -9 4 -5 9 3
5 0 13 -6 16 -20 13 41 45 66 35 13 -5 28 -4 36 2 12 8 11 9 -1 5 -10 -3 -22
6 -32 23 l-16 28 34 -20 c19 -11 34 -23 34 -28z m-829 23 c13 -16 12 -17 -3
-4 -10 7 -18 15 -18 17 0 8 8 3 21 -13z m-23 -14 c9 -12 9 -16 -1 -16 -7 0
-14 9 -14 20 -1 11 -1 18 0 16 2 -2 8 -11 15 -20z m111 -1 c-12 -23 -21 -24
-12 -1 5 12 3 14 -7 8 -8 -5 -11 -4 -7 2 3 5 13 10 21 10 11 0 13 -5 5 -19z
m71 18 c0 -3 -4 -8 -10 -11 -5 -3 -10 -1 -10 4 0 6 5 11 10 11 6 0 10 -2 10
-4z m55 -6 c13 -6 15 -9 5 -9 -8 0 -22 4 -30 9 -18 12 -2 12 25 0z m-399 -22
c3 -4 -1 -5 -10 -4 -8 1 -18 5 -22 8 -3 4 1 5 10 4 8 -1 18 -5 22 -8z m378 3
c3 -5 -2 -15 -12 -22 -16 -13 -16 -13 -2 5 14 18 13 19 -2 13 -10 -3 -18 -2
-18 3 0 12 27 13 34 1z m66 -1 c0 -5 -4 -10 -10 -10 -5 0 -10 5 -10 10 0 6 5
10 10 10 6 0 10 -4 10 -10z m-107 -20 c3 -11 0 -23 -5 -27 -7 -3 -8 -1 -4 5 4
7 3 12 -3 12 -6 0 -8 7 -5 15 8 20 11 19 17 -5z m-83 0 c8 -5 11 -10 5 -10 -5
0 -17 5 -25 10 -8 5 -10 10 -5 10 6 0 17 -5 25 -10z m150 -10 c-6 -11 -15 -18
-21 -15 -5 4 -9 -3 -9 -15 0 -12 4 -19 9 -16 10 7 46 -43 37 -51 -3 -3 -8 2
-12 11 -3 9 -10 13 -15 10 -5 -3 -6 2 -3 11 4 10 2 15 -7 13 -9 -2 -14 6 -14
22 0 15 5 24 13 23 6 -2 12 4 12 12 0 8 5 15 10 15 7 0 7 -7 0 -20z m69 3 c0
-11 -3 -13 -6 -5 -2 6 -10 9 -15 6 -7 -4 -8 -2 -4 4 11 18 26 14 25 -5z m-24
-22 c-6 -5 -25 10 -25 20 0 5 6 4 14 -3 8 -7 12 -15 11 -17z m635 10 c0 -4 -7
-8 -15 -8 -16 0 -20 9 -9 20 8 8 24 -1 24 -12z m-964 -16 c1 -8 -1 -17 -5 -19
-4 -3 -7 6 -7 19 0 25 8 25 12 0z m39 17 c-3 -3 0 -11 6 -19 17 -20 5 -16 -14
5 -15 16 -15 19 -2 19 8 0 13 -3 10 -5z m45 -6 c-7 -7 -13 -7 -20 0 -6 6 -3
10 10 10 13 0 16 -4 10 -10z m765 3 c-4 -6 0 -9 10 -7 10 2 20 -2 22 -9 3 -8
-3 -11 -16 -8 -11 2 -22 -3 -25 -11 -3 -8 -1 -12 4 -9 6 4 7 -1 3 -11 -6 -16
-7 -15 -19 1 -10 14 -11 22 -3 32 6 7 8 13 3 13 -5 0 -2 5 6 10 19 13 23 12
15 -1z m95 -22 c0 5 9 9 20 10 11 1 20 -2 20 -8 0 -10 0 -10 -57 -14 -41 -2
-41 -2 -30 22 l11 25 18 -22 c10 -12 18 -18 18 -13z m-980 9 c0 -2 -7 -7 -16
-10 -8 -3 -12 -2 -9 4 6 10 25 14 25 6z m205 -6 c-3 -5 -12 -10 -18 -10 -7 0
-6 4 3 10 19 12 23 12 15 0z m55 -15 c0 -2 -5 -7 -12 -11 -7 -5 -8 -3 -3 6 5
9 1 11 -16 6 -13 -3 -18 -3 -11 0 6 3 9 10 6 16 -4 6 2 5 15 -1 11 -7 21 -14
21 -16z m80 15 c0 -5 -4 -10 -10 -10 -5 0 -10 5 -10 10 0 6 5 10 10 10 6 0 10
-4 10 -10z m-206 -9 c4 -5 -3 -7 -14 -4 -23 6 -26 13 -6 13 8 0 17 -4 20 -9z
m-423 -18 c13 -16 12 -17 -3 -4 -10 7 -18 15 -18 17 0 8 8 3 21 -13z m205 5
c3 -4 -1 -5 -10 -4 -8 1 -18 5 -22 8 -3 4 1 5 10 4 8 -1 18 -5 22 -8z m999
-11 c1 -7 -13 -20 -30 -30 -16 -10 -21 -15 -10 -11 11 3 26 7 33 7 11 0 15 10
10 23 -4 8 33 27 40 20 3 -3 -7 -19 -22 -35 -28 -29 -23 -47 9 -35 9 4 4 -6
-12 -22 -15 -16 -39 -30 -52 -32 -24 -2 -24 -2 -6 12 11 8 23 12 27 10 4 -2
10 1 14 7 4 8 3 9 -5 5 -8 -5 -10 0 -7 18 3 15 1 24 -5 21 -5 -4 -6 -11 -3
-17 4 -6 -2 -8 -17 -3 -13 3 -19 3 -14 -2 14 -11 17 -33 5 -33 -5 0 -10 5 -10
10 0 6 -3 9 -7 9 -21 -3 -33 2 -27 12 4 8 9 7 15 -2 7 -11 9 -11 10 -1 1 6 2
15 3 20 0 4 11 17 24 30 12 12 22 27 22 34 0 15 15 0 15 -15z m-550 -16 c-6
-5 -25 10 -25 20 0 5 6 4 14 -3 8 -7 12 -15 11 -17z m-374 2 c13 -16 12 -17
-3 -4 -17 13 -22 21 -14 21 2 0 10 -8 17 -17z m155 5 c3 -4 -1 -5 -10 -4 -8 1
-18 5 -22 8 -3 4 1 5 10 4 8 -1 18 -5 22 -8z m84 6 c0 -8 -19 -13 -24 -6 -3 5
1 9 9 9 8 0 15 -2 15 -3z m45 -4 c-3 -5 -11 -10 -16 -10 -6 0 -7 5 -4 10 3 6
11 10 16 10 6 0 7 -4 4 -10z m135 3 c0 -5 -4 -14 -9 -21 -7 -11 -9 -11 -14 1
-3 8 -3 18 0 21 9 8 23 7 23 -1z m-320 -17 c0 -2 -8 -10 -17 -17 -16 -13 -17
-12 -4 4 13 16 21 21 21 13z m207 -28 c-4 -12 -1 -18 6 -15 7 3 11 10 9 16 -1
7 3 9 9 6 8 -5 6 -12 -4 -22 -20 -20 -37 -9 -29 19 4 16 2 19 -8 13 -9 -5 -11
-4 -6 4 11 17 28 2 23 -21z m-420 7 c0 -8 -4 -12 -9 -9 -5 3 -6 10 -3 15 9 13
12 11 12 -6z m262 1 c9 -10 8 -15 -2 -19 -8 -3 -13 3 -13 14 0 23 0 23 15 5z
m95 -26 c-6 -5 -24 21 -24 34 0 6 6 1 14 -10 8 -10 12 -21 10 -24z m173 -9
c17 -9 17 -11 -4 -26 -13 -9 -23 -24 -24 -33 0 -11 -2 -13 -6 -4 -3 7 3 22 13
33 16 18 16 20 1 37 -10 10 -17 25 -16 33 0 8 4 4 9 -8 5 -12 17 -26 27 -32z
m-223 31 c3 -5 -1 -9 -9 -9 -8 0 -15 4 -15 9 0 4 4 8 9 8 6 0 12 -4 15 -8z
m176 -12 c0 -5 -4 -10 -10 -10 -5 0 -10 5 -10 10 0 6 5 10 10 10 6 0 10 -4 10
-10z m-100 -30 c0 -5 -4 -10 -10 -10 -5 0 -10 5 -10 10 0 6 5 10 10 10 6 0 10
-4 10 -10z m80 0 c0 -5 -4 -10 -10 -10 -5 0 -10 5 -10 10 0 6 5 10 10 10 6 0
10 -4 10 -10z m40 0 c0 -5 -4 -10 -10 -10 -5 0 -10 5 -10 10 0 6 5 10 10 10 6
0 10 -4 10 -10z m-219 -28 c-7 -2 -18 1 -23 6 -8 8 -4 9 13 5 13 -4 18 -8 10
-11z m68 0 c7 -14 6 -19 -4 -19 -7 0 -11 7 -7 15 4 11 1 13 -8 7 -9 -5 -11 -4
-6 3 10 16 14 15 25 -6z m44 3 c-3 -9 -8 -14 -10 -11 -3 3 -2 9 2 15 9 16 15
13 8 -4z m46 1 c9 -11 9 -16 0 -22 -7 -4 -9 -3 -5 4 3 6 -2 15 -11 21 -10 6
-13 11 -7 11 6 0 17 -6 23 -14z m531 -1 c-7 -9 -10 -18 -6 -22 3 -3 6 -1 6 5
0 7 7 9 17 5 15 -6 14 -7 -3 -13 -35 -13 -57 12 -29 32 18 13 28 8 15 -7z
m-890 1 c0 -2 -8 -10 -17 -17 -16 -13 -17 -12 -4 4 13 16 21 21 21 13z m400
-6 c0 -5 -4 -10 -10 -10 -5 0 -10 5 -10 10 0 6 5 10 10 10 6 0 10 -4 10 -10z
m-263 -17 c0 -10 -4 -10 -16 -1 -9 7 -18 13 -20 15 -2 1 5 1 16 0 11 0 20 -7
20 -14z m203 3 c0 -20 -17 -29 -26 -15 -5 8 -3 9 6 4 10 -6 12 -4 7 8 -3 10
-2 17 3 17 6 0 10 -6 10 -14z m-385 -15 c-9 -8 -36 -10 -30 -2 2 4 11 8 20 8
8 0 13 -3 10 -6z m164 -25 c-3 -3 -11 5 -18 17 -13 21 -12 21 5 5 10 -10 16
-20 13 -22z m121 25 c0 -6 -5 -13 -12 -17 -6 -4 -8 -3 -4 4 3 5 0 13 -6 15 -8
3 -6 6 5 6 9 1 17 -3 17 -8z m125 -25 c-10 -14 -21 -23 -26 -20 -5 3 -9 -4 -9
-16 0 -12 4 -19 9 -15 6 3 15 -4 21 -15 7 -13 7 -20 0 -20 -5 0 -10 7 -10 15
0 8 -6 14 -12 13 -8 -2 -13 7 -13 22 0 16 5 24 14 22 9 -2 11 3 7 13 -3 9 -2
14 3 11 5 -3 12 1 15 10 4 9 9 14 12 11 3 -3 -2 -17 -11 -31z m-103 -18 c-6
-6 -12 -6 -17 3 -6 8 -4 10 5 4 9 -5 10 -1 6 16 -6 21 -6 22 5 6 7 -13 8 -22
1 -29z m-206 20 c4 -7 4 -10 -1 -6 -4 4 -15 2 -24 -5 -14 -11 -14 -10 -2 6 16
20 18 21 27 5z m259 2 c3 -5 2 -10 -4 -10 -5 0 -13 5 -16 10 -3 6 -2 10 4 10
5 0 13 -4 16 -10z m83 -4 c-7 -8 -15 -12 -17 -11 -5 6 10 25 20 25 5 0 4 -6
-3 -14z m-202 -28 c-1 -13 3 -27 9 -31 6 -5 5 -7 -4 -5 -15 4 -25 58 -12 58 5
0 8 -10 7 -22z m247 -13 c19 -19 30 -35 24 -35 -7 0 -6 -4 3 -10 8 -5 12 -11
10 -14 -3 -2 -14 2 -24 10 -13 9 -15 14 -6 14 9 0 7 6 -6 18 -24 22 -48 52
-41 52 3 0 21 -16 40 -35z m-188 -3 c-3 -3 -11 0 -18 7 -9 10 -8 11 6 5 10 -3
15 -9 12 -12z m125 8 c0 -5 -4 -10 -10 -10 -5 0 -10 5 -10 10 0 6 5 10 10 10
6 0 10 -4 10 -10z m-405 -20 c3 -5 1 -10 -4 -10 -6 0 -11 5 -11 10 0 6 2 10 4
10 3 0 8 -4 11 -10z m445 -5 c14 -17 8 -31 -9 -20 -6 3 -9 11 -6 16 4 5 1 9
-4 9 -6 0 -11 -5 -11 -12 0 -6 -3 -9 -6 -5 -7 7 4 27 15 27 5 0 14 -7 21 -15z
m-86 -36 c-7 -12 -34 -11 -34 1 0 5 8 7 18 3 15 -6 15 -3 -3 18 l-20 24 22
-19 c13 -10 20 -23 17 -27z m-254 25 c0 -8 -19 -13 -24 -6 -3 5 1 9 9 9 8 0
15 -2 15 -3z m119 -9 c3 -3 -7 -4 -23 -1 -16 3 -31 8 -35 11 -3 3 7 4 23 1 16
-3 31 -8 35 -11z m91 0 c0 -8 -2 -15 -4 -15 -2 0 -6 7 -10 15 -3 8 -1 15 4 15
6 0 10 -7 10 -15z m-35 -4 c3 -5 0 -13 -6 -17 -7 -4 -9 -3 -5 4 3 5 0 13 -6
15 -9 4 -10 6 -1 6 6 1 14 -3 18 -8z m-258 -16 c0 -8 -4 -12 -9 -9 -5 3 -6 10
-3 15 9 13 12 11 12 -6z m121 -4 c-7 -9 -13 -18 -15 -20 -1 -2 -1 5 0 16 0 11
7 20 14 20 10 0 10 -4 1 -16z m38 -7 c1 -9 0 -13 -3 -10 -4 3 -13 0 -22 -6
-12 -10 -12 -7 2 8 9 11 15 24 12 27 -3 4 -2 5 2 2 4 -3 8 -13 9 -21z m244 16
c0 -5 -4 -10 -10 -10 -5 0 -10 5 -10 10 0 6 5 10 10 10 6 0 10 -4 10 -10z
m-360 -4 c0 -2 -8 -10 -17 -17 -16 -13 -17 -12 -4 4 13 16 21 21 21 13z m421
-9 c17 -13 22 -47 6 -47 -5 0 -7 6 -4 14 6 15 -11 36 -29 36 -6 0 -24 -18 -39
-39 -28 -42 -55 -46 -54 -7 0 20 1 20 10 -3 9 -24 10 -24 40 17 32 44 44 49
70 29z m-173 -5 c8 -6 2 -9 -18 -9 -20 0 -26 3 -18 9 7 4 15 8 18 8 3 0 11 -4
18 -8z m67 -2 c-27 -12 -43 -12 -25 0 8 5 22 9 30 9 10 0 8 -3 -5 -9z m-125
-4 c0 -2 -7 -7 -16 -10 -8 -3 -12 -2 -9 4 6 10 25 14 25 6z m150 -11 c-7 -9
-15 -13 -19 -10 -3 3 1 10 9 15 21 14 24 12 10 -5z m-405 -5 c3 -5 1 -10 -4
-10 -6 0 -11 5 -11 10 0 6 2 10 4 10 3 0 8 -4 11 -10z m105 2 c0 -5 -7 -9 -15
-9 -8 0 -12 4 -9 9 3 4 9 8 15 8 5 0 9 -4 9 -8z m370 -2 c0 -5 -7 -7 -15 -4
-8 4 -15 8 -15 10 0 2 7 4 15 4 8 0 15 -4 15 -10z m-273 -7 c-4 -3 0 -11 9
-17 13 -10 13 -12 -5 -12 -11 0 -17 4 -15 8 3 4 -1 8 -8 8 -9 0 -9 3 2 10 17
11 26 13 17 3z m70 1 c-3 -3 -12 -4 -19 -1 -8 3 -5 6 6 6 11 1 17 -2 13 -5z
m29 -23 c-4 -6 -13 -11 -19 -11 -8 0 -7 3 2 9 8 5 10 14 6 22 -6 11 -5 11 5 2
7 -6 9 -16 6 -22z m44 19 c0 -5 -7 -7 -15 -4 -8 4 -15 8 -15 10 0 2 7 4 15 4
8 0 15 -4 15 -10z m-183 -15 c0 -8 -4 -12 -9 -9 -5 3 -6 10 -3 15 9 13 12 11
12 -6z m299 -3 c1 -7 0 -8 -3 -2 -8 17 -23 11 -16 -7 5 -14 3 -15 -7 -6 -7 6
-9 16 -5 23 8 13 28 8 31 -8z m-492 -10 c3 -5 -1 -9 -9 -9 -8 0 -12 4 -9 9 3
4 7 8 9 8 2 0 6 -4 9 -8z m36 -2 c0 -5 -2 -10 -4 -10 -3 0 -8 5 -11 10 -3 6
-1 10 4 10 6 0 11 -4 11 -10z m322 3 c-6 -2 -9 -10 -6 -15 4 -7 2 -8 -5 -4
-13 9 -5 26 12 25 9 0 8 -2 -1 -6z m-170 -18 c2 3 5 -2 5 -10 0 -19 0 -19 -23
7 -12 14 -13 18 -3 10 9 -6 18 -10 21 -7z m-97 -13 c-3 -3 -11 0 -18 7 -9 10
-8 11 6 5 10 -3 15 -9 12 -12z m189 9 c-7 -8 -54 -9 -59 -2 -2 4 12 7 30 7 19
0 32 -3 29 -5z m46 -1 c8 -5 11 -10 5 -10 -5 0 -17 5 -25 10 -8 5 -10 10 -5
10 6 0 17 -5 25 -10z m53 -8 c-10 -10 -20 -17 -22 -16 -6 5 20 34 30 34 5 0 1
-8 -8 -18z m77 10 c0 -4 -8 -19 -17 -32 -10 -14 -18 -27 -18 -30 0 -14 -40 -2
-43 13 -2 9 1 17 7 17 6 0 8 -6 5 -13 -2 -7 4 -13 16 -14 11 -1 19 1 18 5 -1
4 3 17 10 28 6 12 8 24 5 28 -3 3 -1 6 5 6 7 0 12 -3 12 -8z m320 -1 c0 -5 -7
-11 -14 -14 -10 -4 -13 -1 -9 9 6 15 23 19 23 5z m-842 -26 c-3 -3 -9 2 -12
12 -6 14 -5 15 5 6 7 -7 10 -15 7 -18z m484 18 c-6 -2 -10 -9 -7 -14 4 -5 -1
-6 -10 -2 -13 5 -14 7 -3 14 7 5 18 8 23 8 6 0 4 -3 -3 -6z m54 -17 c-10 -15
-12 -27 -6 -31 6 -3 9 -14 9 -23 -1 -15 -2 -15 -6 1 -2 9 -8 15 -13 12 -5 -3
-7 -12 -3 -20 3 -10 -1 -15 -12 -15 -14 0 -15 -3 -5 -15 7 -9 8 -15 2 -15 -18
0 -21 29 -4 39 9 6 13 11 9 11 -5 0 -5 6 0 13 4 6 8 18 9 25 3 14 23 42 31 42
3 0 -2 -11 -11 -24z m-340 -10 c1 -7 -4 -13 -12 -13 -9 0 -11 4 -4 12 5 7 8
15 5 18 -3 4 -2 5 2 2 4 -3 8 -11 9 -19z m35 7 c13 -16 12 -17 -3 -4 -10 7
-18 15 -18 17 0 8 8 3 21 -13z m145 -7 c2 -16 -24 -17 -30 0 -3 9 1 11 11 7
12 -5 14 -3 8 8 -5 8 -4 11 0 6 5 -4 10 -13 11 -21z m44 -21 c0 -5 -5 -3 -10
5 -5 8 -10 20 -10 25 0 6 5 3 10 -5 5 -8 10 -19 10 -25z m143 -2 c-5 -11 -8
-12 -13 -2 -5 7 -6 19 -3 26 5 11 8 12 13 2 5 -7 6 -19 3 -26z m-403 23 c0 -3
-4 -8 -10 -11 -5 -3 -10 -1 -10 4 0 6 5 11 10 11 6 0 10 -2 10 -4z m91 -19
c-10 -9 -11 -8 -5 6 3 10 9 15 12 12 3 -3 0 -11 -7 -18z m-195 -9 c3 -4 -1 -5
-10 -4 -8 1 -18 5 -22 8 -3 4 1 5 10 4 8 -1 18 -5 22 -8z m234 8 c0 -2 -8 -10
-17 -17 -16 -13 -17 -12 -4 4 13 16 21 21 21 13z m27 -16 c-1 -21 -10 -18 -13
5 -1 8 2 15 6 15 5 0 8 -9 7 -20z m74 -3 c-10 -9 -11 -8 -5 6 3 10 9 15 12 12
3 -3 0 -11 -7 -18z m-266 -7 c3 -6 -1 -7 -9 -4 -18 7 -21 14 -7 14 6 0 13 -4
16 -10z m303 -4 c-7 -8 -15 -12 -17 -11 -5 6 10 25 20 25 5 0 4 -6 -3 -14z
m-73 -18 c-9 -6 -19 -7 -22 -4 -4 3 -1 6 6 6 7 0 9 4 6 10 -4 6 1 7 11 3 15
-6 15 -7 -1 -15z m122 16 c-3 -3 -12 -4 -19 -1 -8 3 -5 6 6 6 11 1 17 -2 13
-5z m-237 -19 c-6 -8 -8 -20 -4 -27 5 -10 4 -10 -6 -1 -11 10 -11 15 0 28 7 8
15 15 17 15 3 0 0 -7 -7 -15z m160 5 c0 -5 -2 -10 -4 -10 -3 0 -8 5 -11 10 -3
6 -1 10 4 10 6 0 11 -4 11 -10z m36 -6 c-5 -12 -1 -14 17 -8 12 3 19 3 15 -1
-4 -4 -19 -9 -32 -10 -22 -3 -24 -1 -13 16 14 23 21 25 13 3z m132 -3 c11 -7
10 -9 -3 -14 -9 -4 -13 -3 -10 3 3 6 2 10 -4 10 -5 0 -11 -6 -14 -12 -2 -7 -8
-9 -13 -5 -5 4 -2 12 6 17 18 12 22 12 38 1z m-288 -11 c0 -5 -2 -10 -4 -10
-3 0 -8 5 -11 10 -3 6 -1 10 4 10 6 0 11 -4 11 -10z"/>
<path d="M1491 1668 c-8 -13 -12 -23 -10 -24 2 0 -2 -8 -9 -16 -11 -13 -9 -20
11 -43 l23 -27 -1 38 c0 22 -4 45 -8 52 -8 11 -2 16 15 13 4 0 5 6 2 14 -8 19
-7 19 -23 -7z m4 -59 c1 -27 -1 -29 -12 -13 -8 11 -9 21 -3 29 5 7 8 15 5 18
-3 4 -2 5 2 1 4 -3 8 -19 8 -35z"/>
<path d="M1557 1499 c-10 -6 -15 -14 -12 -20 4 -5 1 -9 -4 -9 -20 0 -26 -2
-38 -11 -6 -6 -10 -18 -8 -27 1 -9 -2 -22 -7 -29 -6 -7 -4 -14 4 -19 7 -4 10
-4 6 1 -4 4 8 25 28 47 19 21 32 43 29 48 -4 6 -2 10 4 10 5 0 11 -5 13 -12 3
-8 7 -6 11 5 8 21 -4 28 -26 16z m-17 -44 c0 -1 -9 -10 -19 -19 -19 -17 -19
-17 -16 1 2 10 4 18 4 19 2 2 31 1 31 -1z"/>
<path d="M1562 1790 c-7 -11 -9 -20 -4 -20 4 0 13 9 20 20 7 11 9 20 4 20 -4
0 -13 -9 -20 -20z"/>
<path d="M1760 1865 c-19 -22 -8 -25 13 -3 9 10 13 18 8 18 -5 0 -14 -7 -21
-15z"/>
<path d="M1793 1861 c-12 -10 -19 -21 -16 -25 4 -3 -1 -6 -10 -6 -9 0 -17 -4
-17 -10 0 -19 25 -5 43 23 20 32 33 31 55 -1 13 -20 13 -22 -2 -22 -19 0 -21
-16 -3 -26 6 -4 9 -4 5 1 -4 4 -1 13 8 19 14 10 13 15 -6 39 -25 32 -28 32
-57 8z"/>
<path d="M1900 1871 c0 -7 -4 -10 -9 -6 -18 10 -22 -15 -7 -37 9 -12 16 -17
16 -11 0 7 -4 15 -10 18 -5 3 -10 11 -10 16 0 6 4 8 9 4 11 -6 26 13 17 22 -3
4 -6 1 -6 -6z"/>
<path d="M1935 1871 c-3 -5 0 -13 6 -17 7 -4 9 -3 5 4 -3 5 0 13 6 15 9 4 10
6 1 6 -6 1 -14 -3 -18 -8z"/>
<path d="M1318 1852 c-22 -4 -24 -22 -3 -22 8 0 15 6 15 13 0 8 3 9 8 1 4 -6
14 -11 22 -11 26 -1 41 -7 69 -33 26 -23 33 -58 9 -44 -6 4 -5 10 3 16 11 8
11 9 -1 5 -8 -2 -14 -10 -12 -16 1 -7 -2 -9 -9 -5 -8 4 -9 3 -5 -5 4 -6 12 -8
18 -5 7 5 8 2 3 -7 -6 -11 -5 -12 6 -1 20 18 28 15 24 -13 -1 -14 3 -28 9 -32
6 -3 8 -3 4 2 -4 4 -3 14 3 22 9 10 8 13 -1 13 -9 0 -10 3 -1 13 8 10 7 17 -2
26 -9 9 -9 14 2 21 12 7 12 11 2 24 -10 12 -17 13 -27 5 -15 -13 -34 -4 -30
14 1 7 1 8 -2 3 -2 -4 -8 -2 -13 5 -7 12 -9 11 -9 -1 0 -12 -2 -12 -9 -2 -8
14 -43 21 -73 14z m156 -53 c-3 -5 -10 -7 -15 -3 -5 3 -7 10 -3 15 3 5 10 7
15 3 5 -3 7 -10 3 -15z"/>
<path d="M1266 1834 c-3 -8 -2 -23 4 -33 6 -12 5 -22 -2 -29 -5 -5 -7 -15 -3
-21 7 -13 25 -5 25 10 0 6 -5 7 -12 3 -7 -5 -8 -3 -3 6 6 10 10 10 19 -2 10
-13 13 -13 24 -2 7 8 10 15 7 15 -3 1 -9 3 -15 4 -5 1 -15 3 -21 4 -5 0 -7 6
-4 11 3 6 1 10 -6 10 -7 0 -9 3 -5 7 4 5 14 -1 22 -11 10 -14 14 -16 14 -5 1
10 3 9 11 -3 5 -10 15 -18 21 -18 9 0 9 3 1 11 -6 6 -9 18 -6 26 5 13 2 13
-15 4 -17 -9 -22 -8 -27 9 -8 24 -21 26 -29 4z"/>
<path d="M1814 1841 c3 -5 -1 -11 -9 -15 -22 -8 -18 -29 10 -49 20 -14 24 -15
19 -2 -3 8 -10 15 -16 15 -5 0 -6 5 -2 12 4 7 3 8 -4 4 -7 -4 -12 -3 -12 2 0
6 7 12 15 16 17 6 20 26 4 26 -5 0 -8 -4 -5 -9z"/>
<path d="M1350 1815 c-8 -10 -8 -15 1 -20 7 -5 2 -15 -17 -30 -32 -25 -26 -47
7 -27 11 7 24 10 29 7 6 -3 7 1 4 9 -3 9 -11 13 -17 9 -6 -3 -7 -1 -3 5 4 6
13 9 22 5 9 -3 14 0 12 7 -2 7 4 15 12 17 13 4 13 3 0 -6 -8 -6 -11 -11 -6
-11 5 0 4 -6 -2 -13 -7 -8 -7 -18 -2 -27 5 -8 6 -18 3 -24 -3 -5 -1 -6 5 -2 7
4 10 2 9 -6 -2 -7 -2 -10 0 -5 3 4 9 5 13 2 5 -3 2 -14 -7 -25 -9 -10 -21 -16
-26 -13 -6 4 -7 1 -2 -7 5 -8 4 -11 -3 -6 -6 4 -8 14 -5 24 6 15 5 15 -10 3
-9 -7 -17 -17 -17 -21 0 -12 36 -18 51 -9 8 4 19 3 28 -4 12 -10 13 -9 2 11
-10 19 -9 23 4 29 13 5 14 7 3 14 -10 7 -9 9 5 9 9 0 17 5 17 11 0 6 -6 9 -14
6 -8 -3 -22 3 -32 14 -18 20 -18 21 -1 30 21 12 16 23 -23 42 -24 12 -31 13
-40 2z m24 -16 c-3 -5 -10 -7 -15 -3 -5 3 -7 10 -3 15 3 5 10 7 15 3 5 -3 7
-10 3 -15z m47 -76 c13 -16 12 -17 -3 -4 -10 7 -18 15 -18 17 0 8 8 3 21 -13z"/>
<path d="M1874 1802 c3 -5 1 -12 -6 -14 -6 -2 -12 -12 -14 -22 -1 -10 0 -16 3
-13 2 3 5 9 5 14 1 4 8 13 16 19 12 9 12 13 2 19 -8 5 -11 4 -6 -3z"/>
<path d="M1750 1790 c0 -5 7 -7 15 -4 8 4 15 8 15 10 0 2 -7 4 -15 4 -8 0 -15
-4 -15 -10z"/>
<path d="M1235 1770 c-5 -9 -4 -15 3 -18 8 -2 3 -11 -10 -22 l-23 -19 23 2
c12 1 22 6 22 11 0 6 5 5 12 -2 7 -7 16 -8 23 -2 7 6 11 3 12 -10 1 -11 -3
-22 -8 -25 -11 -7 -3 -25 11 -25 5 0 7 6 4 13 -3 8 2 20 11 27 9 7 15 8 15 2
0 -6 11 -9 25 -7 15 1 30 -4 36 -14 9 -13 9 -13 4 4 -4 11 -8 25 -8 32 -1 21
-31 25 -45 6 -15 -21 -23 -19 -38 9 -7 14 -14 17 -18 9 -12 -18 -24 -13 -33
16 -7 21 -11 24 -18 13z m135 -50 c0 -5 -4 -10 -10 -10 -5 0 -10 5 -10 10 0 6
5 10 10 10 6 0 10 -4 10 -10z"/>
<path d="M1826 1733 c-6 -14 -5 -15 5 -6 7 7 10 15 7 18 -3 3 -9 -2 -12 -12z"/>
<path d="M1310 1680 c0 -5 5 -10 10 -10 6 0 10 5 10 10 0 6 -4 10 -10 10 -5 0
-10 -4 -10 -10z"/>
<path d="M1339 1683 c-6 -33 -5 -53 2 -53 4 0 6 -9 4 -20 -2 -12 0 -18 6 -14
6 3 8 9 5 12 -3 3 -1 11 4 17 8 9 6 14 -5 19 -11 4 -14 13 -10 26 3 11 4 20 1
20 -3 0 -7 -3 -7 -7z"/>
<path d="M1240 1666 c-8 -10 -8 -20 -2 -33 7 -12 7 -25 0 -36 -7 -13 -6 -23 4
-34 9 -12 9 -15 1 -9 -7 4 -13 3 -13 -2 0 -5 -10 -14 -22 -19 -22 -10 -22 -10
5 -10 15 0 30 3 32 7 3 5 23 6 45 4 37 -3 39 -2 28 15 -11 17 -13 18 -23 4
-10 -14 -14 -13 -33 8 -17 17 -19 25 -10 31 7 4 9 8 3 8 -5 0 1 7 15 15 14 8
33 12 42 9 11 -3 16 0 14 10 -3 20 -16 33 -16 16 0 -10 -4 -10 -17 2 -30 26
-40 28 -53 14z m36 -28 c-18 -10 -39 -2 -31 12 3 4 15 6 26 3 19 -5 19 -7 5
-15z"/>
<path d="M1744 1669 c-3 -6 -1 -16 5 -22 9 -9 11 -8 5 6 -5 13 -2 16 10 11 9
-3 16 -4 16 -1 0 11 -30 16 -36 6z"/>
<path d="M1276 1605 c-20 -20 -20 -29 -2 -44 17 -14 29 9 19 35 -4 12 -2 15 8
12 8 -3 13 -11 11 -18 -1 -7 4 -23 13 -36 9 -14 11 -25 5 -29 -11 -7 -4 -25
10 -25 5 0 7 7 4 15 -4 9 -1 15 7 15 7 0 3 11 -12 27 -13 14 -19 23 -12 19 8
-4 11 1 10 14 -1 11 -4 20 -8 20 -4 0 -14 3 -22 6 -8 3 -22 -2 -31 -11z"/>
<path d="M1346 1575 c-3 -8 2 -19 11 -24 13 -7 14 -12 6 -23 -6 -7 -11 -17
-11 -23 -1 -19 -20 -16 -36 7 -9 12 -16 17 -16 10 0 -9 -5 -10 -19 -2 -28 14
-36 13 -21 -5 7 -8 17 -12 24 -8 6 4 5 -1 -2 -10 -8 -9 -11 -20 -8 -25 6 -10
-27 -45 -35 -37 -3 2 -5 -14 -4 -36 1 -22 -3 -42 -7 -45 -15 -9 -8 -20 12 -20
19 0 24 24 8 36 -3 3 0 14 8 24 10 15 17 16 27 8 11 -9 14 -6 14 18 0 27 -2
29 -17 15 -9 -8 -21 -15 -26 -15 -4 0 2 7 14 16 12 8 22 21 21 27 -1 7 1 20 5
29 7 15 9 15 26 0 14 -12 17 -19 8 -29 -14 -17 2 -16 26 2 10 8 15 19 10 26
-4 7 -3 10 3 6 5 -3 9 3 9 15 -1 12 6 22 16 23 16 3 16 1 3 -25 -15 -29 -11
-65 7 -54 5 3 4 11 -3 20 -9 11 -9 14 0 14 7 0 10 4 7 8 -2 4 -1 14 3 21 6 9
11 10 15 2 4 -6 2 -11 -5 -11 -8 0 -8 -4 1 -15 7 -8 15 -13 19 -11 4 3 7 -6 7
-19 0 -13 -3 -22 -6 -20 -4 2 -7 -2 -7 -10 0 -8 3 -12 7 -10 4 2 7 -3 7 -12 0
-12 -6 -9 -23 10 -19 22 -23 24 -29 9 -3 -9 -3 -14 0 -10 4 3 16 -4 28 -16
l22 -21 -24 -17 c-13 -9 -31 -14 -40 -11 -12 3 -12 2 2 -7 9 -6 23 -8 30 -3 6
4 19 8 27 8 12 0 15 14 15 60 0 69 7 85 35 80 17 -3 18 -1 7 15 -8 13 -19 18
-36 15 -34 -6 -54 11 -40 36 5 10 8 19 7 20 -19 5 -46 4 -42 -3 3 -4 0 -8 -6
-8 -6 0 -8 -4 -5 -10 4 -6 -1 -7 -11 -3 -11 4 -13 8 -6 11 14 4 16 22 3 22 -5
0 -11 -7 -15 -15z m68 -10 c-4 -8 -11 -15 -16 -15 -6 0 -5 6 2 15 7 8 14 15
16 15 2 0 1 -7 -2 -15z m73 -60 c4 -4 3 -5 -4 -1 -6 3 -14 2 -18 -3 -3 -6 -13
-7 -21 -4 -12 4 -13 8 -3 13 14 9 36 7 46 -5z"/>
<path d="M1296 1483 c-3 -3 -1 -13 3 -22 5 -9 7 -32 6 -52 -2 -26 1 -36 11
-36 8 0 13 6 10 13 -2 6 2 20 9 31 9 11 14 13 15 5 0 -7 5 -10 10 -7 8 5 7 11
-1 21 -7 9 -8 14 -1 14 6 0 12 -6 15 -12 2 -8 8 -9 13 -4 5 5 4 11 -4 13 -6 3
-9 9 -6 15 4 6 -2 5 -15 -1 -11 -7 -21 -17 -21 -23 0 -7 -5 -6 -15 2 -11 9
-12 16 -5 25 8 9 6 14 -4 18 -8 3 -17 3 -20 0z m34 -57 c0 -3 -4 -8 -10 -11
-5 -3 -10 -1 -10 4 0 6 5 11 10 11 6 0 10 -2 10 -4z"/>
<path d="M1413 1471 c1 -22 12 -28 21 -12 3 5 -1 14 -9 21 -11 9 -14 8 -12 -9z"/>
<path d="M1365 1411 c-4 -3 -12 -6 -18 -6 -7 0 -12 -9 -12 -20 0 -19 -7 -21
-45 -16 -5 0 -9 4 -7 9 1 4 -2 8 -8 10 -5 1 -11 -7 -11 -18 -1 -14 5 -19 20
-18 11 1 32 -2 46 -6 17 -5 21 -4 11 2 -9 7 -10 12 -2 16 10 6 15 -6 9 -19 -2
-2 6 -11 17 -20 18 -15 17 -15 -12 0 -40 19 -44 19 -37 0 4 -8 11 -12 17 -8 6
4 7 1 3 -6 -5 -8 -3 -11 5 -9 8 1 15 -2 15 -7 1 -6 -3 -8 -10 -7 -6 2 -8 0 -4
-4 5 -4 -1 -14 -13 -22 -11 -8 -18 -20 -15 -28 3 -7 -2 -17 -11 -22 -9 -6 -12
-12 -5 -16 5 -3 13 1 16 10 3 8 10 12 16 9 9 -6 11 -2 14 32 1 6 12 21 25 32
13 12 20 21 15 21 -5 0 0 7 10 15 19 14 12 21 -16 16 -5 0 -8 4 -8 9 0 6 0 13
0 18 0 4 8 7 19 8 30 2 44 14 31 29 -13 15 -46 25 -55 16z m30 -15 c7 3 16 1
20 -5 4 -7 0 -8 -11 -4 -13 5 -15 3 -9 -8 8 -12 6 -12 -8 0 -9 7 -17 19 -16
25 0 7 2 7 5 -1 3 -7 11 -10 19 -7z"/>
<path d="M1275 1337 c-25 -14 -54 -16 -61 -6 -6 10 -34 0 -34 -11 0 -10 92 -6
111 5 8 4 11 5 7 0 -4 -4 0 -14 10 -22 16 -12 16 -13 -3 -7 -20 6 -20 5 -1
-10 11 -9 16 -16 10 -17 -20 -2 -50 -8 -71 -14 -16 -5 -23 -3 -23 6 0 10 -4 9
-16 -3 -13 -13 -14 -19 -3 -35 7 -11 23 -20 36 -20 19 0 21 2 12 14 -10 11
-14 11 -21 1 -8 -11 -9 -11 -6 0 2 8 7 13 12 12 5 -1 13 4 18 12 7 9 8 8 4 -5
-4 -12 -2 -17 6 -14 7 2 12 10 11 16 -2 6 2 11 7 11 6 0 10 -4 10 -9 0 -6 -4
-13 -10 -16 -5 -3 -10 -10 -10 -16 0 -5 9 -4 19 3 10 6 17 17 15 23 -3 7 2 18
11 25 19 16 19 23 -3 59 -15 25 -21 28 -37 18z"/>
<path d="M1254 1295 c-21 -16 -20 -17 18 -19 15 -1 24 2 21 7 -3 4 -12 6 -22
3 -12 -5 -11 -2 3 9 11 8 15 15 10 15 -6 0 -19 -7 -30 -15z"/>
</g>
</svg>
